<?xml version="1.0" encoding="UTF-8"?>
<svg id="Layer_2" xmlns="http://www.w3.org/2000/svg" viewBox="0 0 146.92 146.92">
  <defs>
    <style>
      .cls-1, .cls-2 {
        fill: #fff;
      }

      .cls-3 {
        fill: #653d79;
      }

      .cls-2 {
        stroke: #fff;
        stroke-miterlimit: 10;
      }
    </style>
  </defs>
  <g id="Layer_1-2" data-name="Layer_1">
    <g>
      <path class="cls-3" d="M139.99,110.82c3.81-3.81,6.93-11.34,6.93-16.73v-41.25c0-5.39-3.12-12.92-6.93-16.73l-29.17-29.17C107,3.12,99.48,0,94.09,0h-41.25c-5.39,0-12.92,3.12-16.73,6.93L6.93,36.1C3.12,39.91,0,47.44,0,52.83v41.25c0,5.39,3.12,12.92,6.93,16.73l29.17,29.17c3.81,3.81,11.34,6.93,16.73,6.93h41.25c5.39,0,12.92-3.12,16.73-6.93l29.17-29.17Z"/>
      <g>
        <path class="cls-2" d="M95.23,69.81h-43.55c-.14,0-.26-.11-.26-.26s.11-.26.26-.26h43.55c.14,0,.26.11.26.26s-.11.26-.26.26Z"/>
        <path class="cls-2" d="M58.98,69.81h-5.79c-.14,0-.26-.11-.26-.26v-12.92c0-.14.11-.26.26-.26h5.79c.14,0,.26.11.26.26v12.92c0,.14-.11.26-.26.26ZM53.45,69.3h5.28v-12.41h-5.28v12.41Z"/>
        <path class="cls-2" d="M67.67,69.8h-5.79c-.14,0-.26-.11-.26-.26v-17.41c0-.14.11-.26.26-.26h5.79c.14,0,.26.11.26.26v17.41c0,.14-.11.26-.26.26ZM62.14,69.29h5.28v-16.9h-5.28v16.9Z"/>
        <path class="cls-2" d="M76.36,69.8h-5.79c-.14,0-.26-.11-.26-.26v-26.03c0-.14.11-.26.26-.26h5.79c.14,0,.26.11.26.26v26.03c0,.14-.11.26-.26.26ZM70.83,69.29h5.28v-25.52h-5.28v25.52Z"/>
        <path class="cls-2" d="M85.06,69.8h-5.79c-.14,0-.26-.11-.26-.26v-21.65c0-.14.11-.26.26-.26h5.79c.14,0,.26.11.26.26v21.65c0,.14-.11.26-.26.26ZM79.52,69.29h5.28v-21.14h-5.28v21.14Z"/>
        <path class="cls-2" d="M93.74,69.81h-5.79c-.14,0-.26-.11-.26-.26v-34.8c0-.14.11-.26.26-.26h5.79c.14,0,.26.11.26.26v34.8c0,.14-.11.26-.26.26ZM88.21,69.3h5.28v-34.29h-5.28v34.29Z"/>
        <path class="cls-2" d="M55.95,51.28c-1.32,0-2.4-1.08-2.4-2.4s1.08-2.4,2.4-2.4,2.4,1.08,2.4,2.4-1.08,2.4-2.4,2.4ZM55.95,47c-1.04,0-1.89.85-1.89,1.89s.85,1.89,1.89,1.89,1.89-.85,1.89-1.89-.85-1.89-1.89-1.89Z"/>
        <path class="cls-2" d="M73.38,38.27c-1.32,0-2.4-1.08-2.4-2.4s1.08-2.4,2.4-2.4,2.4,1.08,2.4,2.4-1.08,2.4-2.4,2.4ZM73.38,33.98c-1.04,0-1.89.85-1.89,1.89s.85,1.89,1.89,1.89,1.89-.85,1.89-1.89-.85-1.89-1.89-1.89Z"/>
        <path class="cls-2" d="M64.78,47.01c-1.32,0-2.4-1.08-2.4-2.4s1.08-2.4,2.4-2.4,2.4,1.08,2.4,2.4-1.08,2.4-2.4,2.4ZM64.78,42.72c-1.04,0-1.89.85-1.89,1.89s.85,1.89,1.89,1.89,1.89-.85,1.89-1.89-.85-1.89-1.89-1.89Z"/>
        <path class="cls-2" d="M82.02,42.69c-1.32,0-2.4-1.08-2.4-2.4s1.08-2.4,2.4-2.4,2.4,1.08,2.4,2.4-1.08,2.4-2.4,2.4ZM82.02,38.4c-1.04,0-1.89.85-1.89,1.89s.85,1.89,1.89,1.89,1.89-.85,1.89-1.89-.85-1.89-1.89-1.89Z"/>
        <path class="cls-2" d="M90.75,29.59c-1.32,0-2.4-1.08-2.4-2.4s1.08-2.4,2.4-2.4,2.4,1.08,2.4,2.4-1.08,2.4-2.4,2.4ZM90.75,25.3c-1.04,0-1.89.85-1.89,1.89s.85,1.89,1.89,1.89,1.89-.85,1.89-1.89-.85-1.89-1.89-1.89Z"/>
        <path class="cls-2" d="M57.82,48.42c-.09,0-.18-.05-.22-.13-.07-.12-.02-.28.1-.35l4.81-2.67c.12-.07.28-.02.35.1.07.12.02.28-.1.35l-4.81,2.67s-.08.03-.12.03Z"/>
        <path class="cls-2" d="M66.2,43.35c-.07,0-.13-.02-.18-.07-.1-.1-.1-.26,0-.36l5.61-5.61c.1-.1.26-.1.36,0,.1.1.1.26,0,.36l-5.61,5.61s-.11.07-.18.07Z"/>
        <path class="cls-2" d="M80.18,39.43s-.07,0-.11-.02l-4.9-2.32c-.13-.06-.18-.21-.12-.34s.21-.18.34-.12l4.9,2.32c.13.06.18.21.12.34-.04.09-.14.15-.23.15Z"/>
        <path class="cls-2" d="M83.39,38.8s-.09-.01-.14-.04c-.12-.08-.15-.23-.08-.35l6.06-9.54c.08-.12.24-.15.35-.08.12.08.15.23.08.35l-6.06,9.54c-.05.08-.13.12-.22.12Z"/>
      </g>
      <g>
        <path class="cls-1" d="M35.75,92.38v4.26h-2.49v-12.09h4.71c.91,0,1.71.17,2.39.5.69.33,1.22.8,1.59,1.42s.56,1.31.56,2.09c0,1.18-.41,2.12-1.22,2.8-.81.68-1.93,1.02-3.37,1.02h-2.18ZM35.75,90.36h2.22c.66,0,1.16-.16,1.51-.46.35-.31.52-.75.52-1.33s-.17-1.07-.52-1.44c-.35-.37-.83-.55-1.45-.56h-2.28v3.79Z"/>
        <path class="cls-1" d="M43.58,92.06c0-.89.17-1.68.51-2.38s.84-1.24,1.48-1.62,1.39-.57,2.25-.57c1.21,0,2.2.37,2.97,1.11.77.74,1.19,1.75,1.28,3.02l.02.61c0,1.38-.38,2.48-1.15,3.32-.77.83-1.8,1.25-3.1,1.25s-2.33-.42-3.1-1.25c-.77-.83-1.16-1.96-1.16-3.39v-.11ZM45.98,92.23c0,.85.16,1.51.48,1.96.32.45.78.68,1.38.68s1.03-.22,1.36-.67c.33-.45.49-1.16.49-2.14,0-.84-.16-1.49-.49-1.95-.33-.46-.79-.69-1.38-.69s-1.04.23-1.36.69c-.32.46-.48,1.17-.48,2.12Z"/>
        <path class="cls-1" d="M61.65,92.23c0,1.38-.31,2.49-.94,3.33-.63.83-1.48,1.25-2.54,1.25-.91,0-1.64-.32-2.2-.95v4.23h-2.4v-12.43h2.22l.08.88c.58-.7,1.34-1.05,2.28-1.05,1.11,0,1.97.41,2.58,1.23.61.82.92,1.95.92,3.39v.12ZM59.26,92.06c0-.84-.15-1.48-.44-1.93-.3-.45-.73-.68-1.29-.68-.75,0-1.27.29-1.55.86v3.68c.29.59.82.89,1.57.89,1.15,0,1.72-.94,1.72-2.81Z"/>
        <path class="cls-1" d="M68.52,95.72c-.59.72-1.41,1.08-2.46,1.08-.96,0-1.7-.28-2.2-.83-.51-.55-.77-1.36-.78-2.43v-5.88h2.4v5.81c0,.94.43,1.4,1.28,1.4s1.37-.28,1.68-.85v-6.37h2.41v8.98h-2.26l-.07-.91Z"/>
        <path class="cls-1" d="M75.18,96.64h-2.41v-12.75h2.41v12.75Z"/>
        <path class="cls-1" d="M82.37,96.64c-.11-.22-.19-.48-.24-.81-.58.65-1.34.97-2.27.97-.88,0-1.61-.25-2.19-.76-.58-.51-.87-1.15-.87-1.93,0-.95.35-1.68,1.06-2.19.71-.51,1.72-.77,3.06-.77h1.1v-.51c0-.42-.11-.75-.32-1s-.55-.37-1.01-.37c-.4,0-.72.1-.95.29-.23.19-.34.46-.34.8h-2.4c0-.52.16-1,.48-1.44.32-.44.77-.79,1.36-1.04.59-.25,1.25-.38,1.98-.38,1.11,0,1.99.28,2.64.83.65.56.98,1.34.98,2.34v3.89c0,.85.12,1.5.36,1.93v.14h-2.42ZM80.38,94.97c.35,0,.68-.08.98-.24.3-.16.52-.37.66-.63v-1.54h-.9c-1.2,0-1.84.42-1.92,1.25v.14c0,.3.1.54.31.74.21.19.5.29.86.29Z"/>
        <path class="cls-1" d="M89.15,85.45v2.21h1.54v1.76h-1.54v4.48c0,.33.06.57.19.71.13.14.37.22.73.22.27,0,.5-.02.71-.06v1.82c-.47.14-.95.22-1.45.22-1.68,0-2.54-.85-2.57-2.55v-4.84h-1.31v-1.76h1.31v-2.21h2.4Z"/>
        <path class="cls-1" d="M92,85.33c0-.36.12-.66.36-.89.24-.23.57-.35.98-.35s.74.12.98.35c.24.23.37.53.37.89s-.12.66-.37.9-.57.35-.97.35-.73-.12-.98-.35-.37-.53-.37-.9ZM94.55,96.64h-2.41v-8.98h2.41v8.98Z"/>
        <path class="cls-1" d="M96.15,92.06c0-.89.17-1.68.51-2.38s.84-1.24,1.48-1.62,1.39-.57,2.25-.57c1.21,0,2.2.37,2.97,1.11.77.74,1.19,1.75,1.28,3.02l.02.61c0,1.38-.38,2.48-1.15,3.32-.77.83-1.8,1.25-3.1,1.25s-2.33-.42-3.1-1.25c-.77-.83-1.16-1.96-1.16-3.39v-.11ZM98.55,92.23c0,.85.16,1.51.48,1.96.32.45.78.68,1.38.68s1.03-.22,1.36-.67c.33-.45.49-1.16.49-2.14,0-.84-.16-1.49-.49-1.95-.33-.46-.79-.69-1.38-.69s-1.04.23-1.36.69c-.32.46-.48,1.17-.48,2.12Z"/>
        <path class="cls-1" d="M108.35,87.66l.08,1.04c.64-.8,1.5-1.2,2.58-1.2.95,0,1.66.28,2.12.84.46.56.7,1.39.71,2.51v5.8h-2.4v-5.74c0-.51-.11-.88-.33-1.11s-.59-.34-1.1-.34c-.67,0-1.18.29-1.52.86v6.33h-2.4v-8.98h2.26Z"/>
        <path class="cls-1" d="M59.33,114.64h-2.49v-5.18h-4.86v5.18h-2.49v-12.09h2.49v4.9h4.86v-4.9h2.49v12.09Z"/>
        <path class="cls-1" d="M65.49,114.8c-1.32,0-2.39-.4-3.22-1.21-.83-.81-1.24-1.88-1.24-3.23v-.23c0-.9.17-1.71.52-2.42.35-.71.84-1.26,1.48-1.64.64-.38,1.37-.58,2.19-.58,1.23,0,2.2.39,2.9,1.16.71.77,1.06,1.87,1.06,3.29v.98h-5.72c.08.59.31,1.06.7,1.41.39.35.88.53,1.48.53.92,0,1.65-.33,2.17-1l1.18,1.32c-.36.51-.85.91-1.46,1.19-.62.29-1.29.43-2.04.43ZM65.21,107.42c-.48,0-.86.16-1.16.48-.3.32-.49.78-.57,1.38h3.34v-.19c-.01-.53-.16-.95-.43-1.24-.28-.29-.67-.44-1.18-.44Z"/>
        <path class="cls-1" d="M75.74,114.64c-.11-.22-.19-.48-.24-.81-.58.65-1.34.97-2.27.97-.88,0-1.61-.25-2.19-.76-.58-.51-.87-1.15-.87-1.93,0-.95.35-1.68,1.06-2.19.71-.51,1.72-.77,3.06-.77h1.1v-.51c0-.42-.11-.75-.32-1s-.55-.37-1.01-.37c-.4,0-.72.1-.95.29-.23.19-.34.46-.34.8h-2.4c0-.52.16-1,.48-1.44.32-.44.77-.79,1.36-1.04.59-.25,1.25-.38,1.98-.38,1.11,0,1.99.28,2.64.83.65.56.98,1.34.98,2.34v3.89c0,.85.12,1.5.36,1.93v.14h-2.42ZM73.76,112.97c.35,0,.68-.08.98-.24.3-.16.52-.37.66-.63v-1.54h-.9c-1.2,0-1.84.42-1.92,1.25v.14c0,.3.1.54.31.74.21.19.5.29.86.29Z"/>
        <path class="cls-1" d="M82.19,114.64h-2.41v-12.75h2.41v12.75Z"/>
        <path class="cls-1" d="M87.03,103.45v2.21h1.54v1.76h-1.54v4.48c0,.33.06.57.19.71.13.14.37.22.73.22.27,0,.5-.02.71-.06v1.82c-.47.14-.95.22-1.45.22-1.68,0-2.54-.85-2.57-2.55v-4.84h-1.31v-1.76h1.31v-2.21h2.4Z"/>
        <path class="cls-1" d="M92.25,106.64c.64-.76,1.44-1.15,2.4-1.15,1.95,0,2.94,1.13,2.96,3.39v5.75h-2.4v-5.69c0-.51-.11-.89-.33-1.14-.22-.25-.59-.37-1.1-.37-.7,0-1.21.27-1.53.81v6.38h-2.4v-12.75h2.4v4.75Z"/>
      </g>
    </g>
  </g>
</svg>