<?xml version="1.0" encoding="UTF-8"?>
<svg id="Layer_2" xmlns="http://www.w3.org/2000/svg" viewBox="0 0 146.92 146.92">
  <defs>
    <style>
      .cls-1, .cls-2 {
        fill: #fff;
      }

      .cls-3 {
        fill: #653d79;
      }

      .cls-2 {
        stroke: #fff;
        stroke-miterlimit: 10;
      }
    </style>
  </defs>
  <g id="Layer_1-2" data-name="Layer_1">
    <g>
      <path class="cls-3" d="M52.83,0c-5.39,0-12.92,3.12-16.73,6.93L6.93,36.1C3.12,39.91,0,47.44,0,52.83v41.25c0,5.39,3.12,12.92,6.93,16.73l29.17,29.17c3.81,3.81,11.34,6.93,16.73,6.93h41.25c5.39,0,12.92-3.12,16.73-6.93l29.17-29.17c3.81-3.81,6.93-11.34,6.93-16.73v-41.25c0-5.39-3.12-12.92-6.93-16.73l-29.17-29.17C107,3.12,99.48,0,94.09,0h-41.25Z"/>
      <g>
        <path class="cls-2" d="M82.38,33.1c-3.07,0-5.57-2.5-5.57-5.58s2.5-5.58,5.57-5.58,5.57,2.5,5.57,5.58-2.5,5.58-5.57,5.58ZM82.38,22.5c-2.77,0-5.02,2.25-5.02,5.02s2.25,5.02,5.02,5.02,5.02-2.25,5.02-5.02-2.25-5.02-5.02-5.02Z"/>
        <path class="cls-2" d="M55.96,72.66c-.61,0-1.2-.2-1.7-.58-1.19-.91-1.42-2.67-.51-3.94l10.96-15.27c-2.09-2.28-2.32-5.72-.52-8.26l6.24-8.81-3.25-.79-4.07,9.63c-.29.7-.85,1.24-1.55,1.52-.71.28-1.49.26-2.19-.06-1.36-.62-1.97-2.29-1.37-3.73l5.1-12.07c.34-.79.99-1.37,1.79-1.6.63-.18,1.31-.15,1.9.1l8.25,2.79c.16.08.32.15.48.2.21.09.4.19.57.3l4.75,3.37c.3.22.54.49.72.8.24.35.41.74.47,1.14l.96,5.89,7.41-1.22c1.54-.25,3.03.73,3.31,2.21,0,.04,0,.08,0,.11.11.71-.06,1.41-.47,2-.44.63-1.09,1.04-1.85,1.17l-10.27,1.68c-.84.14-1.68-.1-2.31-.66-.49-.42-.81-.99-.93-1.65l-.4-2.49-3.17,4.48,7.99,5.74c.46.27.83.67,1.08,1.18.58,1.19.21,2.65-.86,3.47l-9.87,7.65c-.62.48-1.39.68-2.17.55-.77-.12-1.43-.55-1.87-1.2-.82-1.2-.53-2.88.67-3.83l6.89-5.33-5.07-3.65c-.06.12-.13.23-.2.33l-12.65,17.62c-.44.62-1.1,1.02-1.85,1.14-.14.02-.29.03-.43.03ZM67.02,34.42s.04,0,.07,0l3.88.95c.09.02.16.09.19.17.03.09.02.18-.03.26l-6.48,9.14c-1.69,2.39-1.43,5.63.62,7.72.09.1.11.25.03.36l-11.1,15.45c-.74,1.02-.56,2.45.39,3.18.49.37,1.1.53,1.71.44.6-.09,1.13-.41,1.48-.91l12.65-17.62c.08-.11.16-.24.24-.41l.1-.16c.04-.06.11-.1.18-.12.07-.01.15,0,.21.05l5.62,4.04c.07.05.11.13.12.22,0,.09-.04.17-.11.22l-7.18,5.56c-.97.76-1.22,2.11-.55,3.08.35.52.89.86,1.5.96.62.1,1.24-.06,1.74-.44l9.87-7.65c.87-.67,1.16-1.84.7-2.79-.2-.41-.49-.73-.88-.96l-8.23-5.92c-.12-.09-.15-.26-.06-.39l3.72-5.26c.06-.09.18-.14.29-.11.11.03.19.11.21.23l.51,3.15c.09.53.35.99.74,1.32.51.45,1.18.64,1.85.53l10.27-1.68c.6-.1,1.13-.43,1.48-.94.35-.5.47-1.11.36-1.7,0-.03,0-.07,0-.1-.28-1.12-1.44-1.85-2.65-1.66l-7.68,1.26c-.07.01-.15,0-.21-.05-.06-.04-.1-.11-.11-.18l-1.01-6.17c-.05-.32-.18-.64-.39-.94-.15-.26-.34-.47-.57-.64l-4.74-3.37c-.13-.09-.29-.17-.46-.24-.17-.06-.34-.13-.51-.22l-.14-.07-8.07-2.71c-.49-.21-1.04-.24-1.55-.09-.64.19-1.16.65-1.43,1.28l-5.09,12.07c-.49,1.16,0,2.52,1.09,3.01.56.26,1.18.27,1.76.05.57-.22,1.01-.65,1.24-1.22l4.16-9.85c.04-.1.15-.17.26-.17Z"/>
      </g>
      <g>
        <path class="cls-1" d="M52.33,94.15h-4.37l-.83,2.49h-2.65l4.5-12.09h2.31l4.52,12.09h-2.65l-.84-2.49ZM48.64,92.13h3.02l-1.52-4.52-1.5,4.52Z"/>
        <path class="cls-1" d="M59.32,96.64h-2.41v-12.75h2.41v12.75Z"/>
        <path class="cls-1" d="M65.03,94.87c.44,0,.8-.12,1.08-.37.28-.24.42-.57.43-.97h2.25c0,.61-.17,1.17-.5,1.67-.33.51-.77.9-1.34,1.18-.57.28-1.19.42-1.88.42-1.28,0-2.3-.41-3.04-1.22-.74-.82-1.11-1.94-1.11-3.38v-.16c0-1.38.37-2.49,1.1-3.31.74-.82,1.75-1.24,3.03-1.24,1.12,0,2.02.32,2.7.96.68.64,1.02,1.49,1.03,2.55h-2.25c-.01-.47-.16-.85-.43-1.14-.28-.29-.64-.44-1.1-.44-.56,0-.98.2-1.27.61-.29.41-.43,1.07-.43,1.98v.25c0,.93.14,1.59.42,2,.28.4.71.61,1.29.61Z"/>
        <path class="cls-1" d="M69.79,92.06c0-.89.17-1.69.51-2.38s.84-1.24,1.48-1.62,1.39-.57,2.25-.57c1.21,0,2.2.37,2.97,1.11s1.19,1.75,1.28,3.02l.02.61c0,1.38-.38,2.48-1.15,3.32-.77.83-1.8,1.25-3.1,1.25s-2.33-.42-3.1-1.25c-.77-.83-1.16-1.96-1.16-3.39v-.11ZM72.19,92.23c0,.85.16,1.51.48,1.96.32.45.78.68,1.38.68s1.03-.22,1.36-.67c.33-.45.49-1.16.49-2.14,0-.84-.16-1.49-.49-1.95-.33-.46-.79-.69-1.38-.69s-1.04.23-1.36.69c-.32.46-.48,1.17-.48,2.12Z"/>
        <path class="cls-1" d="M82.12,88.63c.64-.76,1.44-1.15,2.4-1.15,1.95,0,2.94,1.13,2.96,3.4v5.75h-2.4v-5.69c0-.51-.11-.9-.33-1.14-.22-.25-.59-.37-1.1-.37-.7,0-1.21.27-1.53.81v6.38h-2.4v-12.75h2.4v4.75Z"/>
        <path class="cls-1" d="M88.91,92.06c0-.89.17-1.69.51-2.38s.84-1.24,1.48-1.62,1.39-.57,2.25-.57c1.21,0,2.2.37,2.97,1.11s1.19,1.75,1.28,3.02l.02.61c0,1.38-.38,2.48-1.15,3.32-.77.83-1.8,1.25-3.1,1.25s-2.33-.42-3.1-1.25c-.77-.83-1.16-1.96-1.16-3.39v-.11ZM91.31,92.23c0,.85.16,1.51.48,1.96.32.45.78.68,1.38.68s1.03-.22,1.36-.67c.33-.45.49-1.16.49-2.14,0-.84-.16-1.49-.49-1.95-.33-.46-.79-.69-1.38-.69s-1.04.23-1.36.69c-.32.46-.48,1.17-.48,2.12Z"/>
        <path class="cls-1" d="M101.43,96.64h-2.41v-12.75h2.41v12.75Z"/>
        <path class="cls-1" d="M42.17,114.64c-.11-.22-.19-.48-.24-.81-.58.65-1.34.97-2.27.97-.88,0-1.61-.25-2.19-.76s-.87-1.15-.87-1.93c0-.95.35-1.68,1.06-2.19.71-.51,1.72-.77,3.06-.77h1.1v-.51c0-.42-.11-.75-.32-1s-.55-.37-1.01-.37c-.4,0-.72.1-.95.29s-.34.46-.34.8h-2.4c0-.52.16-1,.48-1.44s.77-.79,1.36-1.04c.59-.25,1.25-.38,1.98-.38,1.11,0,1.99.28,2.64.83.65.56.98,1.34.98,2.35v3.89c0,.85.12,1.5.36,1.93v.14h-2.42ZM40.19,112.97c.35,0,.68-.08.98-.24.3-.16.52-.37.66-.63v-1.54h-.9c-1.2,0-1.84.42-1.92,1.25v.14c0,.3.1.54.31.74.21.19.5.29.86.29Z"/>
        <path class="cls-1" d="M48.29,105.66l.08,1.04c.64-.8,1.5-1.2,2.58-1.2.95,0,1.66.28,2.12.84s.7,1.39.71,2.51v5.8h-2.4v-5.74c0-.51-.11-.88-.33-1.11-.22-.23-.59-.34-1.1-.34-.67,0-1.18.29-1.52.86v6.33h-2.4v-8.98h2.26Z"/>
        <path class="cls-1" d="M55.23,110.08c0-1.4.31-2.52.94-3.35s1.49-1.25,2.58-1.25c.87,0,1.6.33,2.17.98v-4.58h2.41v12.75h-2.17l-.12-.95c-.6.75-1.37,1.12-2.31,1.12-1.06,0-1.91-.42-2.54-1.25-.64-.83-.96-1.99-.96-3.47ZM57.62,110.26c0,.84.15,1.49.44,1.94s.72.67,1.28.67c.74,0,1.26-.31,1.57-.94v-3.55c-.3-.63-.82-.94-1.55-.94-1.16,0-1.73.94-1.73,2.82Z"/>
        <path class="cls-1" d="M79.5,108.87c0,1.19-.21,2.23-.63,3.13s-1.02,1.59-1.81,2.08-1.68.73-2.69.73-1.9-.24-2.68-.72c-.79-.48-1.39-1.17-1.83-2.06-.43-.89-.65-1.92-.66-3.08v-.6c0-1.19.21-2.24.64-3.14.43-.9,1.03-1.6,1.82-2.08.78-.48,1.68-.73,2.69-.73s1.9.24,2.69.73c.78.48,1.39,1.18,1.82,2.08.43.91.64,1.95.64,3.13v.54ZM76.97,108.32c0-1.27-.23-2.23-.68-2.89s-1.1-.99-1.94-.99-1.48.33-1.93.98c-.45.65-.68,1.6-.69,2.86v.59c0,1.23.23,2.19.68,2.87s1.11,1.02,1.96,1.02,1.48-.33,1.93-.98c.45-.66.67-1.61.68-2.87v-.59Z"/>
        <path class="cls-1" d="M84.02,103.45v2.21h1.54v1.76h-1.54v4.48c0,.33.06.57.19.71s.37.22.73.22c.27,0,.5-.02.71-.06v1.82c-.47.14-.95.22-1.45.22-1.68,0-2.54-.85-2.57-2.55v-4.84h-1.31v-1.76h1.31v-2.21h2.4Z"/>
        <path class="cls-1" d="M89.23,106.63c.64-.76,1.44-1.15,2.4-1.15,1.95,0,2.94,1.13,2.96,3.4v5.75h-2.4v-5.69c0-.51-.11-.9-.33-1.14-.22-.25-.59-.37-1.1-.37-.7,0-1.21.27-1.53.81v6.38h-2.4v-12.75h2.4v4.75Z"/>
        <path class="cls-1" d="M100.54,114.8c-1.32,0-2.39-.4-3.22-1.21s-1.24-1.88-1.24-3.23v-.23c0-.9.17-1.71.52-2.42.35-.71.84-1.26,1.48-1.64.64-.38,1.37-.58,2.19-.58,1.23,0,2.2.39,2.9,1.16.71.77,1.06,1.87,1.06,3.3v.98h-5.72c.08.59.31,1.06.7,1.41.39.35.88.53,1.48.53.92,0,1.65-.33,2.17-1l1.18,1.32c-.36.51-.85.91-1.46,1.19-.62.29-1.29.43-2.04.43ZM100.27,107.42c-.48,0-.86.16-1.16.48-.3.32-.49.78-.57,1.38h3.34v-.19c-.01-.53-.16-.95-.43-1.24-.28-.29-.67-.44-1.18-.44Z"/>
        <path class="cls-1" d="M110.64,107.9c-.33-.04-.62-.07-.86-.07-.91,0-1.5.31-1.79.92v5.88h-2.4v-8.98h2.27l.07,1.07c.48-.82,1.15-1.24,2-1.24.27,0,.52.04.75.11l-.03,2.31Z"/>
        <path class="cls-1" d="M51.93,132.64v-12.09h3.72c1.06,0,2.01.24,2.85.72.84.48,1.49,1.16,1.96,2.04.47.88.71,1.89.71,3.01v.56c0,1.12-.23,2.12-.69,3s-1.11,1.55-1.96,2.03-1.79.73-2.85.73h-3.74ZM54.42,122.57v8.07h1.2c.97,0,1.72-.32,2.23-.95s.78-1.55.79-2.73v-.64c0-1.23-.25-2.16-.76-2.79-.51-.63-1.25-.95-2.23-.95h-1.23Z"/>
        <path class="cls-1" d="M67.87,125.9c-.33-.04-.62-.07-.86-.07-.91,0-1.5.31-1.79.92v5.88h-2.4v-8.98h2.27l.07,1.07c.48-.82,1.15-1.24,2-1.24.27,0,.52.04.75.11l-.03,2.31Z"/>
        <path class="cls-1" d="M74.4,131.72c-.59.72-1.41,1.08-2.46,1.08-.96,0-1.7-.28-2.2-.83-.51-.55-.77-1.36-.78-2.43v-5.89h2.4v5.81c0,.94.43,1.4,1.28,1.4s1.37-.28,1.68-.85v-6.37h2.41v8.98h-2.26l-.07-.91Z"/>
        <path class="cls-1" d="M78.19,128.08c0-1.38.33-2.49.98-3.33.66-.84,1.54-1.26,2.65-1.26.98,0,1.75.34,2.3,1.01l.1-.85h2.17v8.68c0,.79-.18,1.47-.54,2.05-.36.58-.86,1.02-1.51,1.33s-1.41.46-2.27.46c-.66,0-1.3-.13-1.93-.39-.62-.26-1.1-.6-1.42-1.02l1.06-1.46c.6.67,1.32,1,2.17,1,.64,0,1.13-.17,1.49-.51.35-.34.53-.82.53-1.45v-.48c-.55.63-1.28.94-2.18.94-1.08,0-1.95-.42-2.62-1.27-.67-.84-1-1.96-1-3.36v-.1ZM80.59,128.26c0,.81.16,1.45.49,1.92.33.46.78.69,1.35.69.73,0,1.25-.27,1.57-.82v-3.78c-.32-.55-.84-.82-1.55-.82-.58,0-1.03.24-1.36.71-.33.47-.49,1.18-.49,2.11Z"/>
        <path class="cls-1" d="M93.11,130.15c0-.29-.14-.52-.44-.69-.29-.17-.76-.32-1.4-.45-2.14-.45-3.2-1.36-3.2-2.72,0-.8.33-1.46.99-2,.66-.53,1.53-.8,2.59-.8,1.14,0,2.05.27,2.74.81s1.03,1.23,1.03,2.09h-2.4c0-.34-.11-.63-.33-.85-.22-.22-.57-.34-1.04-.34-.4,0-.72.09-.94.27s-.33.42-.33.7c0,.27.13.48.38.64.25.16.68.3,1.27.42.6.12,1.1.25,1.51.4,1.27.46,1.9,1.27,1.9,2.42,0,.82-.35,1.48-1.05,1.99-.7.51-1.61.76-2.72.76-.75,0-1.42-.13-2-.4-.58-.27-1.04-.64-1.37-1.1-.33-.47-.5-.97-.5-1.51h2.27c.02.43.18.75.47.98.29.23.69.34,1.18.34.46,0,.81-.09,1.04-.26.24-.17.35-.4.35-.69Z"/>
      </g>
    </g>
  </g>
</svg>