<?xml version="1.0" encoding="UTF-8"?>
<svg id="Layer_2" xmlns="http://www.w3.org/2000/svg" viewBox="0 0 146.92 146.92">
  <defs>
    <style>
      .cls-1, .cls-2 {
        fill: #fff;
      }

      .cls-3 {
        fill: #653d79;
      }

      .cls-2 {
        stroke: #fff;
        stroke-miterlimit: 10;
      }
    </style>
  </defs>
  <g id="Layer_1-2" data-name="Layer_1">
    <g>
      <path class="cls-3" d="M110.82,6.93c-3.81-3.81-11.34-6.93-16.73-6.93h-41.25c-5.39,0-12.92,3.12-16.73,6.93L6.93,36.1c-3.81,3.81-6.93,11.34-6.93,16.73v41.25c0,5.39,3.12,12.92,6.93,16.73l29.17,29.17c3.81,3.81,11.34,6.93,16.73,6.93h41.25c5.39,0,12.92-3.12,16.73-6.93l29.17-29.17c3.81-3.81,6.93-11.34,6.93-16.73v-41.25c0-5.39-3.12-12.92-6.93-16.73l-29.17-29.17Z"/>
      <g>
        <path class="cls-2" d="M78.16,70.74h-18c-.14,0-.25-.11-.25-.25v-11.95c.12-3.45-.96-5.4-1.89-6.43-1.36-1.5-2.32-3.11-2.86-4.79-.57-1.79-.87-3.67-.87-5.58,0-9.86,7.82-17.88,17.44-17.88s17.35,7.94,17.44,17.71c0,.15-.03.28-.06.4,0,0,0,.02,0,.03-.4,1.61-.17,3.29.66,4.73l2.82,4.86c.04.06.04.13.02.2-.02.07-.07.12-.13.15l-2.38,1.14c-1.11.53-1.83,1.68-1.83,2.91v2.76c0,2.63-2.14,4.78-4.78,4.78h-5.08v6.96c0,.14-.11.25-.25.25ZM60.41,70.23h17.49v-6.96c0-.14.11-.25.25-.25h5.33c2.36,0,4.27-1.92,4.27-4.27v-2.76c0-1.43.83-2.75,2.12-3.37l2.14-1.02-2.69-4.62c-.9-1.57-1.15-3.39-.71-5.14,0,0,0-.01,0-.02.02-.09.04-.17.04-.25-.09-9.48-7.69-17.2-16.94-17.2s-16.94,7.79-16.94,17.37c0,1.86.28,3.68.84,5.42.52,1.61,1.45,3.16,2.76,4.61.99,1.1,2.14,3.16,2.02,6.78v11.68Z"/>
        <path class="cls-2" d="M73.46,47.36s-.08-.01-.12-.03c-.31-.17-7.5-4.2-8.49-9.53-.47-2.53.58-4.69,2.68-5.49,1.77-.68,4.25-.21,5.93,2.27,1.69-2.49,4.17-2.96,5.94-2.28,2.1.8,3.15,2.96,2.68,5.49-1,5.33-8.19,9.36-8.49,9.53-.04.02-.08.03-.12.03ZM69.07,32.54c-.48,0-.95.09-1.37.25-1.86.71-2.79,2.64-2.37,4.92.88,4.73,7.16,8.55,8.12,9.11.96-.56,7.23-4.38,8.12-9.11.43-2.29-.5-4.22-2.36-4.93-1.65-.63-4.01-.13-5.54,2.41-.09.15-.34.15-.43,0-1.14-1.89-2.75-2.65-4.17-2.65Z"/>
      </g>
      <g>
        <path class="cls-1" d="M51.31,84.55l3.1,8.77,3.09-8.77h3.27v12.09h-2.5v-3.3l.25-5.7-3.26,9.01h-1.71l-3.25-9,.25,5.69v3.3h-2.49v-12.09h3.25Z"/>
        <path class="cls-1" d="M66.92,96.8c-1.32,0-2.39-.4-3.22-1.21s-1.24-1.88-1.24-3.23v-.23c0-.9.17-1.71.52-2.42.35-.71.84-1.26,1.48-1.64.64-.38,1.37-.58,2.19-.58,1.23,0,2.2.39,2.9,1.16.71.77,1.06,1.87,1.06,3.3v.98h-5.72c.08.59.31,1.06.7,1.41.39.35.88.53,1.48.53.92,0,1.65-.33,2.17-1l1.18,1.32c-.36.51-.85.91-1.46,1.19-.62.29-1.29.43-2.04.43ZM66.65,89.42c-.48,0-.86.16-1.16.48-.3.32-.49.78-.57,1.38h3.34v-.19c-.01-.53-.16-.95-.43-1.24-.28-.29-.67-.44-1.18-.44Z"/>
        <path class="cls-1" d="M74.18,87.66l.08,1.04c.64-.8,1.5-1.2,2.58-1.2.95,0,1.66.28,2.12.84s.7,1.39.71,2.51v5.8h-2.4v-5.74c0-.51-.11-.88-.33-1.11-.22-.23-.59-.34-1.1-.34-.67,0-1.18.29-1.52.86v6.33h-2.4v-8.98h2.26Z"/>
        <path class="cls-1" d="M84.37,85.45v2.21h1.54v1.76h-1.54v4.48c0,.33.06.57.19.71s.37.22.73.22c.27,0,.5-.02.71-.06v1.82c-.47.14-.95.22-1.45.22-1.68,0-2.54-.85-2.57-2.55v-4.84h-1.31v-1.76h1.31v-2.21h2.4Z"/>
        <path class="cls-1" d="M92.45,96.64c-.11-.22-.19-.48-.24-.81-.58.65-1.34.97-2.27.97-.88,0-1.61-.25-2.19-.76s-.87-1.15-.87-1.93c0-.95.35-1.68,1.06-2.19.71-.51,1.72-.77,3.06-.77h1.1v-.51c0-.42-.11-.75-.32-1s-.55-.37-1.01-.37c-.4,0-.72.1-.95.29s-.34.46-.34.8h-2.4c0-.52.16-1,.48-1.44s.77-.79,1.36-1.04c.59-.25,1.25-.38,1.98-.38,1.11,0,1.99.28,2.64.83.65.56.98,1.34.98,2.35v3.89c0,.85.12,1.5.36,1.93v.14h-2.42ZM90.46,94.97c.35,0,.68-.08.98-.24.3-.16.52-.37.66-.63v-1.54h-.9c-1.2,0-1.84.42-1.92,1.25v.14c0,.3.1.54.31.74.21.19.5.29.86.29Z"/>
        <path class="cls-1" d="M98.89,96.64h-2.41v-12.75h2.41v12.75Z"/>
        <path class="cls-1" d="M59.33,114.64h-2.49v-5.18h-4.86v5.18h-2.49v-12.09h2.49v4.9h4.86v-4.9h2.49v12.09Z"/>
        <path class="cls-1" d="M65.49,114.8c-1.32,0-2.39-.4-3.22-1.21s-1.24-1.88-1.24-3.23v-.23c0-.9.17-1.71.52-2.42.35-.71.84-1.26,1.48-1.64.64-.38,1.37-.58,2.19-.58,1.23,0,2.2.39,2.9,1.16.71.77,1.06,1.87,1.06,3.3v.98h-5.72c.08.59.31,1.06.7,1.41.39.35.88.53,1.48.53.92,0,1.65-.33,2.17-1l1.18,1.32c-.36.51-.85.91-1.46,1.19-.62.29-1.29.43-2.04.43ZM65.21,107.42c-.48,0-.86.16-1.16.48-.3.32-.49.78-.57,1.38h3.34v-.19c-.01-.53-.16-.95-.43-1.24-.28-.29-.67-.44-1.18-.44Z"/>
        <path class="cls-1" d="M75.74,114.64c-.11-.22-.19-.48-.24-.81-.58.65-1.34.97-2.27.97-.88,0-1.61-.25-2.19-.76s-.87-1.15-.87-1.93c0-.95.35-1.68,1.06-2.19.71-.51,1.72-.77,3.06-.77h1.1v-.51c0-.42-.11-.75-.32-1s-.55-.37-1.01-.37c-.4,0-.72.1-.95.29s-.34.46-.34.8h-2.4c0-.52.16-1,.48-1.44s.77-.79,1.36-1.04c.59-.25,1.25-.38,1.98-.38,1.11,0,1.99.28,2.64.83.65.56.98,1.34.98,2.35v3.89c0,.85.12,1.5.36,1.93v.14h-2.42ZM73.76,112.97c.35,0,.68-.08.98-.24.3-.16.52-.37.66-.63v-1.54h-.9c-1.2,0-1.84.42-1.92,1.25v.14c0,.3.1.54.31.74.21.19.5.29.86.29Z"/>
        <path class="cls-1" d="M82.19,114.64h-2.41v-12.75h2.41v12.75Z"/>
        <path class="cls-1" d="M87.03,103.45v2.21h1.54v1.76h-1.54v4.48c0,.33.06.57.19.71s.37.22.73.22c.27,0,.5-.02.71-.06v1.82c-.47.14-.95.22-1.45.22-1.68,0-2.54-.85-2.57-2.55v-4.84h-1.31v-1.76h1.31v-2.21h2.4Z"/>
        <path class="cls-1" d="M92.25,106.63c.64-.76,1.44-1.15,2.4-1.15,1.95,0,2.94,1.13,2.96,3.4v5.75h-2.4v-5.69c0-.51-.11-.9-.33-1.14-.22-.25-.59-.37-1.1-.37-.7,0-1.21.27-1.53.81v6.38h-2.4v-12.75h2.4v4.75Z"/>
      </g>
    </g>
  </g>
</svg>