<?xml version="1.0" encoding="UTF-8"?>
<svg id="Layer_2" xmlns="http://www.w3.org/2000/svg" viewBox="0 0 146.92 146.92">
  <defs>
    <style>
      .cls-1, .cls-2 {
        fill: #fff;
      }

      .cls-3 {
        fill: #653d79;
      }

      .cls-2 {
        stroke: #fff;
        stroke-miterlimit: 10;
      }
    </style>
  </defs>
  <g id="Layer_1-2" data-name="Layer_1">
    <g>
      <path class="cls-3" d="M146.92,52.83c0-5.39-3.12-12.92-6.93-16.73l-29.17-29.17C107,3.12,99.48,0,94.09,0h-41.25c-5.39,0-12.92,3.12-16.73,6.93L6.93,36.1C3.12,39.91,0,47.44,0,52.83v41.25c0,5.39,3.12,12.92,6.93,16.73l29.17,29.17c3.81,3.81,11.34,6.93,16.73,6.93h41.25c5.39,0,12.92-3.12,16.73-6.93l29.17-29.17c3.81-3.81,6.93-11.34,6.93-16.73v-41.25Z"/>
      <g>
        <path class="cls-2" d="M71.4,70.49h-20.81c-.15,0-.28-.12-.28-.28v-17.44c0-7.33,5.96-13.3,13.29-13.3,4.41,0,8.52,2.18,11,5.83.09.13.05.3-.07.38-.12.09-.3.05-.38-.07-2.38-3.5-6.32-5.59-10.55-5.59-7.03,0-12.74,5.72-12.74,12.75v17.17h20.54c.15,0,.28.12.28.28s-.12.28-.28.28Z"/>
        <path class="cls-2" d="M63.6,39.13c-4.14,0-7.51-3.37-7.51-7.51s3.37-7.51,7.51-7.51,7.51,3.37,7.51,7.51-3.37,7.51-7.51,7.51ZM63.6,24.66c-3.84,0-6.96,3.12-6.96,6.96s3.12,6.96,6.96,6.96,6.96-3.12,6.96-6.96-3.12-6.96-6.96-6.96Z"/>
        <path class="cls-2" d="M71.41,57.86c-.15,0-.28-.12-.28-.28v-.91c0-.15.12-.28.28-.28s.28.12.28.28v.91c0,.15-.12.28-.28.28Z"/>
        <path class="cls-2" d="M96.33,70.49h-20.85c-.15,0-.28-.12-.28-.28s.12-.28.28-.28h20.57v-16.42c0-6.72-5.46-12.18-12.18-12.18-5.93,0-10.97,4.24-12,10.07-.03.15-.16.25-.32.22-.15-.03-.25-.17-.22-.32,1.07-6.1,6.34-10.53,12.54-10.53,7.02,0,12.73,5.71,12.73,12.73v16.69c0,.15-.12.28-.28.28Z"/>
        <path class="cls-2" d="M83.87,40.5c-3.97,0-7.2-3.23-7.2-7.2s3.23-7.2,7.2-7.2,7.2,3.23,7.2,7.2-3.23,7.2-7.2,7.2ZM83.87,26.66c-3.67,0-6.65,2.98-6.65,6.65s2.98,6.65,6.65,6.65,6.65-2.98,6.65-6.65-2.98-6.65-6.65-6.65Z"/>
        <path class="cls-2" d="M88.81,70.49h-13.36c-.15,0-.28-.12-.28-.28v-8.95c0-3.84,3.12-6.96,6.96-6.96s6.96,3.12,6.96,6.96v8.95c0,.15-.12.28-.28.28ZM75.73,69.94h12.81v-8.68c0-3.53-2.87-6.41-6.41-6.41s-6.41,2.88-6.41,6.41v8.68Z"/>
        <path class="cls-2" d="M82.14,54.41c-2.2,0-3.99-1.79-3.99-3.99s1.79-3.99,3.99-3.99,3.99,1.79,3.99,3.99-1.79,3.99-3.99,3.99ZM82.14,46.98c-1.9,0-3.44,1.54-3.44,3.44s1.54,3.44,3.44,3.44,3.44-1.54,3.44-3.44-1.54-3.44-3.44-3.44Z"/>
        <path class="cls-2" d="M75.47,70.49h-10.97c-.15,0-.28-.12-.28-.28v-7.35c0-3.18,2.58-5.76,5.76-5.76s5.77,2.58,5.77,5.76v7.35c0,.15-.12.28-.28.28ZM64.77,69.94h10.42v-7.08c0-2.87-2.34-5.21-5.22-5.21s-5.21,2.34-5.21,5.21v7.08Z"/>
        <path class="cls-2" d="M69.99,57.29c-1.83,0-3.33-1.49-3.33-3.32s1.49-3.32,3.33-3.32,3.33,1.49,3.33,3.32-1.49,3.32-3.33,3.32ZM69.99,51.19c-1.53,0-2.77,1.24-2.77,2.77s1.24,2.77,2.77,2.77,2.77-1.24,2.77-2.77-1.24-2.77-2.77-2.77Z"/>
      </g>
      <g>
        <path class="cls-1" d="M48.19,92.61c-.09,1.3-.57,2.32-1.44,3.07s-2.01,1.12-3.42,1.12c-1.55,0-2.77-.52-3.66-1.56-.89-1.04-1.33-2.48-1.33-4.3v-.74c0-1.16.21-2.19.61-3.07s1-1.56,1.76-2.04c.76-.47,1.64-.71,2.65-.71,1.39,0,2.52.37,3.37,1.12.85.75,1.35,1.8,1.48,3.15h-2.49c-.06-.78-.28-1.35-.65-1.7-.37-.35-.94-.53-1.71-.53-.83,0-1.45.3-1.86.89-.41.59-.62,1.52-.63,2.77v.91c0,1.31.2,2.26.59,2.86s1.02.9,1.87.9c.77,0,1.34-.18,1.72-.53.38-.35.6-.9.65-1.63h2.49Z"/>
        <path class="cls-1" d="M52,88.63c.64-.76,1.44-1.15,2.4-1.15,1.95,0,2.94,1.13,2.96,3.4v5.75h-2.4v-5.69c0-.51-.11-.9-.33-1.14-.22-.25-.59-.37-1.1-.37-.7,0-1.21.27-1.53.81v6.38h-2.4v-12.75h2.4v4.75Z"/>
        <path class="cls-1" d="M59.16,85.33c0-.36.12-.66.36-.89.24-.23.57-.35.98-.35s.74.12.98.35c.24.23.37.53.37.89s-.12.66-.37.9-.57.35-.97.35-.73-.12-.98-.35-.37-.53-.37-.9ZM61.71,96.64h-2.41v-8.98h2.41v8.98Z"/>
        <path class="cls-1" d="M66.22,96.64h-2.41v-12.75h2.41v12.75Z"/>
        <path class="cls-1" d="M67.82,92.08c0-1.4.31-2.52.94-3.35s1.49-1.25,2.58-1.25c.87,0,1.6.33,2.17.98v-4.58h2.41v12.75h-2.17l-.12-.95c-.6.75-1.37,1.12-2.31,1.12-1.06,0-1.91-.42-2.54-1.25-.64-.83-.96-1.99-.96-3.47ZM70.22,92.26c0,.84.15,1.49.44,1.94s.72.67,1.28.67c.74,0,1.26-.31,1.57-.94v-3.55c-.3-.63-.82-.94-1.55-.94-1.16,0-1.73.94-1.73,2.82Z"/>
        <path class="cls-1" d="M87.21,96.64c-.11-.22-.19-.48-.24-.81-.58.65-1.34.97-2.27.97-.88,0-1.61-.25-2.19-.76s-.87-1.15-.87-1.93c0-.95.35-1.68,1.06-2.19.71-.51,1.72-.77,3.06-.77h1.1v-.51c0-.42-.11-.75-.32-1s-.55-.37-1.01-.37c-.4,0-.72.1-.95.29s-.34.46-.34.8h-2.4c0-.52.16-1,.48-1.44s.77-.79,1.36-1.04c.59-.25,1.25-.38,1.98-.38,1.11,0,1.99.28,2.64.83.65.56.98,1.34.98,2.35v3.89c0,.85.12,1.5.36,1.93v.14h-2.42ZM85.22,94.97c.35,0,.68-.08.98-.24.3-.16.52-.37.66-.63v-1.54h-.9c-1.2,0-1.84.42-1.92,1.25v.14c0,.3.1.54.31.74.21.19.5.29.86.29Z"/>
        <path class="cls-1" d="M93.33,87.66l.08,1.04c.64-.8,1.5-1.2,2.58-1.2.95,0,1.66.28,2.12.84s.7,1.39.71,2.51v5.8h-2.4v-5.74c0-.51-.11-.88-.33-1.11-.22-.23-.59-.34-1.1-.34-.67,0-1.18.29-1.52.86v6.33h-2.4v-8.98h2.26Z"/>
        <path class="cls-1" d="M100.27,92.08c0-1.4.31-2.52.94-3.35s1.49-1.25,2.58-1.25c.87,0,1.6.33,2.17.98v-4.58h2.41v12.75h-2.17l-.12-.95c-.6.75-1.37,1.12-2.31,1.12-1.06,0-1.91-.42-2.54-1.25-.64-.83-.96-1.99-.96-3.47ZM102.67,92.26c0,.84.15,1.49.44,1.94s.72.67,1.28.67c.74,0,1.26-.31,1.57-.94v-3.55c-.3-.63-.82-.94-1.55-.94-1.16,0-1.73.94-1.73,2.82Z"/>
        <path class="cls-1" d="M56.6,109.7h-4.78v4.94h-2.49v-12.09h7.87v2.02h-5.38v3.12h4.78v2.01Z"/>
        <path class="cls-1" d="M63.41,114.64c-.11-.22-.19-.48-.24-.81-.58.65-1.34.97-2.27.97-.88,0-1.61-.25-2.19-.76s-.87-1.15-.87-1.93c0-.95.35-1.68,1.06-2.19.71-.51,1.72-.77,3.06-.77h1.1v-.51c0-.42-.11-.75-.32-1s-.55-.37-1.01-.37c-.4,0-.72.1-.95.29s-.34.46-.34.8h-2.4c0-.52.16-1,.48-1.44s.77-.79,1.36-1.04c.59-.25,1.25-.38,1.98-.38,1.11,0,1.99.28,2.64.83.65.56.98,1.34.98,2.35v3.89c0,.85.12,1.5.36,1.93v.14h-2.42ZM61.43,112.97c.35,0,.68-.08.98-.24.3-.16.52-.37.66-.63v-1.54h-.9c-1.2,0-1.84.42-1.92,1.25v.14c0,.3.1.54.31.74.21.19.5.29.86.29Z"/>
        <path class="cls-1" d="M69.57,105.66l.08,1c.64-.78,1.5-1.17,2.58-1.17,1.16,0,1.95.46,2.38,1.37.63-.91,1.53-1.37,2.7-1.37.97,0,1.7.28,2.17.85.48.57.71,1.42.71,2.56v5.74h-2.41v-5.73c0-.51-.1-.88-.3-1.12-.2-.24-.55-.35-1.05-.35-.72,0-1.22.34-1.49,1.03v6.17s-2.39,0-2.39,0v-5.72c0-.52-.1-.9-.31-1.13s-.55-.35-1.05-.35c-.68,0-1.17.28-1.48.85v6.35h-2.4v-8.98h2.25Z"/>
        <path class="cls-1" d="M82.02,103.33c0-.36.12-.66.36-.89.24-.23.57-.35.98-.35s.74.12.98.35c.24.23.37.53.37.89s-.12.66-.37.9-.57.35-.97.35-.73-.12-.98-.35-.37-.53-.37-.9ZM84.57,114.64h-2.41v-8.98h2.41v8.98Z"/>
        <path class="cls-1" d="M89.08,114.64h-2.41v-12.75h2.41v12.75Z"/>
        <path class="cls-1" d="M94.41,111.24l1.66-5.59h2.57l-3.61,10.38-.2.47c-.54,1.17-1.42,1.76-2.66,1.76-.35,0-.7-.05-1.06-.16v-1.82h.37c.45,0,.79-.06,1.02-.2.22-.14.4-.37.53-.69l.28-.74-3.15-9.01h2.58l1.67,5.59Z"/>
        <path class="cls-1" d="M59.34,132.64h-2.49v-5.18h-4.86v5.18h-2.49v-12.09h2.49v4.9h4.86v-4.9h2.49v12.09Z"/>
        <path class="cls-1" d="M65.49,132.8c-1.32,0-2.39-.4-3.22-1.21s-1.24-1.88-1.24-3.23v-.23c0-.9.17-1.71.52-2.42.35-.71.84-1.26,1.48-1.64.64-.38,1.37-.58,2.19-.58,1.23,0,2.2.39,2.9,1.16.71.77,1.06,1.87,1.06,3.3v.98h-5.72c.08.59.31,1.06.7,1.41.39.35.88.53,1.48.53.92,0,1.65-.33,2.17-1l1.18,1.32c-.36.51-.85.91-1.46,1.19-.62.29-1.29.43-2.04.43ZM65.21,125.42c-.48,0-.86.16-1.16.48-.3.32-.49.78-.57,1.38h3.34v-.19c-.01-.53-.16-.95-.43-1.24-.28-.29-.67-.44-1.18-.44Z"/>
        <path class="cls-1" d="M75.75,132.64c-.11-.22-.19-.48-.24-.81-.58.65-1.34.97-2.27.97-.88,0-1.61-.25-2.19-.76s-.87-1.15-.87-1.93c0-.95.35-1.68,1.06-2.19.71-.51,1.72-.77,3.06-.77h1.1v-.51c0-.42-.11-.75-.32-1s-.55-.37-1.01-.37c-.4,0-.72.1-.95.29s-.34.46-.34.8h-2.4c0-.52.16-1,.48-1.44s.77-.79,1.36-1.04c.59-.25,1.25-.38,1.98-.38,1.11,0,1.99.28,2.64.83.65.56.98,1.34.98,2.35v3.89c0,.85.12,1.5.36,1.93v.14h-2.42ZM73.76,130.97c.35,0,.68-.08.98-.24.3-.16.52-.37.66-.63v-1.54h-.9c-1.2,0-1.84.42-1.92,1.25v.14c0,.3.1.54.31.74.21.19.5.29.86.29Z"/>
        <path class="cls-1" d="M82.19,132.64h-2.41v-12.75h2.41v12.75Z"/>
        <path class="cls-1" d="M87.03,121.45v2.21h1.54v1.76h-1.54v4.48c0,.33.06.57.19.71s.37.22.73.22c.27,0,.5-.02.71-.06v1.82c-.47.14-.95.22-1.45.22-1.68,0-2.54-.85-2.57-2.55v-4.84h-1.31v-1.76h1.31v-2.21h2.4Z"/>
        <path class="cls-1" d="M92.25,124.63c.64-.76,1.44-1.15,2.4-1.15,1.95,0,2.94,1.13,2.96,3.4v5.75h-2.4v-5.69c0-.51-.11-.9-.33-1.14-.22-.25-.59-.37-1.1-.37-.7,0-1.21.27-1.53.81v6.38h-2.4v-12.75h2.4v4.75Z"/>
      </g>
    </g>
  </g>
</svg>