<?xml version="1.0" encoding="UTF-8"?>
<svg id="Layer_2" xmlns="http://www.w3.org/2000/svg" viewBox="0 0 146.92 146.92">
  <defs>
    <style>
      .cls-1, .cls-2 {
        fill: #fff;
      }

      .cls-3 {
        fill: #653d79;
      }

      .cls-2 {
        stroke: #fff;
        stroke-miterlimit: 10;
      }
    </style>
  </defs>
  <g id="Layer_1-2" data-name="Layer_1">
    <g>
      <path class="cls-3" d="M110.82,6.93c-3.81-3.81-11.34-6.93-16.73-6.93h-41.25c-5.39,0-12.92,3.12-16.73,6.93L6.93,36.1c-3.81,3.81-6.93,11.34-6.93,16.73v41.25c0,5.39,3.12,12.92,6.93,16.73l29.17,29.17c3.81,3.81,11.34,6.93,16.73,6.93h41.25c5.39,0,12.92-3.12,16.73-6.93l29.17-29.17c3.81-3.81,6.93-11.34,6.93-16.73v-41.25c0-5.39-3.12-12.92-6.93-16.73l-29.17-29.17Z"/>
      <path class="cls-2" d="M84.18,64.51h-17.37l-1.58-.07c-8.23,0-14.93-6.72-14.93-14.99,0-6.48,4.12-12.2,10.26-14.23l14.78-5.05c.82-.27,1.69.13,2,.92.52,1.36.9,3.88-2.46,5.52l-4.9,1.66h19.56c1.78,0,3.22,1.45,3.22,3.23,0,1.09-.55,2.06-1.38,2.65h1.54c2.05,0,3.71,1.69,3.71,3.77s-1.66,3.76-3.71,3.76h-1.49c.94.62,1.57,1.7,1.57,2.92,0,1.92-1.55,3.49-3.45,3.49h-3.44c.94.62,1.57,1.7,1.57,2.92,0,.05-.01.1-.04.14-.07,1.86-1.59,3.35-3.44,3.35ZM75.85,30.63c-.11,0-.23.02-.34.06l-14.78,5.05c-5.92,1.96-9.89,7.47-9.89,13.72,0,7.97,6.46,14.45,14.41,14.45l1.58.07h17.36c1.6,0,2.91-1.32,2.91-2.95,0-.05.01-.09.04-.13-.06-1.43-1.14-2.6-2.51-2.79h-12.45c-.09,0-.18-.05-.23-.13-.05-.08-.06-.2-.01-.28.05-.08.13-.15.23-.15h12.07c.14,0,.29,0,.43.03h4.89c1.6,0,2.91-1.32,2.91-2.95,0-1.49-1.09-2.73-2.51-2.92h-15.87s-.07,0-.1-.02l-.07-.03c-.12-.05-.18-.18-.16-.3s.14-.22.26-.22h15.54c.15,0,.29,0,.43.03h2.94c1.75,0,3.17-1.45,3.17-3.22s-1.42-3.23-3.17-3.23h-2.89c-.16.03-.33.04-.5.04h-16.18c-.13,0-.25-.1-.27-.23-.02-.13.06-.26.18-.3l.11-.04s.06-.01.09-.01h16.52c1.26-.22,2.23-1.32,2.23-2.65,0-1.48-1.2-2.69-2.68-2.69h-21.19c-.13,0-.24-.1-.27-.23-.02-.13.05-.26.18-.3l6.41-2.18c2.79-1.37,2.72-3.38,2.16-4.83-.16-.41-.55-.66-.98-.66Z"/>
      <g>
        <path class="cls-1" d="M42.02,94.15h-4.37l-.83,2.49h-2.65l4.5-12.09h2.31l4.52,12.09h-2.65l-.84-2.49ZM38.33,92.13h3.02l-1.52-4.52-1.5,4.52Z"/>
        <path class="cls-1" d="M54.57,92.23c0,1.44-.31,2.56-.92,3.37-.62.81-1.47,1.21-2.57,1.21-.97,0-1.75-.37-2.33-1.12l-.11.95h-2.16v-12.75h2.4v4.57c.55-.65,1.28-.97,2.18-.97,1.1,0,1.95.4,2.58,1.21.62.8.93,1.94.93,3.4v.13ZM52.17,92.05c0-.91-.14-1.57-.43-1.99-.29-.42-.72-.63-1.29-.63-.76,0-1.29.31-1.58.94v3.54c.29.63.82.95,1.59.95s1.28-.38,1.53-1.15c.12-.37.17-.92.17-1.67Z"/>
        <path class="cls-1" d="M55.67,92.06c0-.89.17-1.69.51-2.38s.84-1.24,1.48-1.62,1.39-.57,2.25-.57c1.21,0,2.2.37,2.97,1.11s1.19,1.75,1.28,3.02l.02.61c0,1.38-.38,2.48-1.15,3.32-.77.83-1.8,1.25-3.1,1.25s-2.33-.42-3.1-1.25c-.77-.83-1.16-1.96-1.16-3.39v-.11ZM58.07,92.23c0,.85.16,1.51.48,1.96.32.45.78.68,1.38.68s1.03-.22,1.36-.67c.33-.45.49-1.16.49-2.14,0-.84-.16-1.49-.49-1.95-.33-.46-.79-.69-1.38-.69s-1.04.23-1.36.69c-.32.46-.48,1.17-.48,2.12Z"/>
        <path class="cls-1" d="M70.71,89.9c-.33-.04-.62-.07-.86-.07-.91,0-1.5.31-1.79.92v5.88h-2.4v-8.98h2.27l.07,1.07c.48-.82,1.15-1.24,2-1.24.27,0,.52.04.75.11l-.03,2.31Z"/>
        <path class="cls-1" d="M71.84,85.33c0-.36.12-.66.36-.89.24-.23.57-.35.98-.35s.74.12.98.35c.24.23.37.53.37.89s-.12.66-.37.9-.57.35-.97.35-.73-.12-.98-.35-.37-.53-.37-.9ZM74.39,96.64h-2.41v-8.98h2.41v8.98Z"/>
        <path class="cls-1" d="M76.02,92.08c0-1.38.33-2.49.98-3.33.66-.84,1.54-1.26,2.65-1.26.98,0,1.75.34,2.3,1.01l.1-.85h2.17v8.68c0,.79-.18,1.47-.54,2.05-.36.58-.86,1.02-1.51,1.33s-1.41.46-2.27.46c-.66,0-1.3-.13-1.93-.39-.62-.26-1.1-.6-1.42-1.02l1.06-1.46c.6.67,1.32,1,2.17,1,.64,0,1.13-.17,1.49-.51.35-.34.53-.82.53-1.45v-.48c-.55.63-1.28.94-2.18.94-1.08,0-1.95-.42-2.62-1.27-.67-.84-1-1.96-1-3.36v-.1ZM78.42,92.26c0,.81.16,1.45.49,1.92.33.46.78.69,1.35.69.73,0,1.25-.27,1.57-.82v-3.78c-.32-.55-.84-.82-1.55-.82-.58,0-1.03.24-1.36.71-.33.47-.49,1.18-.49,2.11Z"/>
        <path class="cls-1" d="M86.05,85.33c0-.36.12-.66.36-.89.24-.23.57-.35.98-.35s.74.12.98.35c.24.23.37.53.37.89s-.12.66-.37.9-.57.35-.97.35-.73-.12-.98-.35-.37-.53-.37-.9ZM88.6,96.64h-2.41v-8.98h2.41v8.98Z"/>
        <path class="cls-1" d="M92.79,87.66l.08,1.04c.64-.8,1.5-1.2,2.58-1.2.95,0,1.66.28,2.12.84s.7,1.39.71,2.51v5.8h-2.4v-5.74c0-.51-.11-.88-.33-1.11-.22-.23-.59-.34-1.1-.34-.67,0-1.18.29-1.52.86v6.33h-2.4v-8.98h2.26Z"/>
        <path class="cls-1" d="M105.3,96.64c-.11-.22-.19-.48-.24-.81-.58.65-1.34.97-2.27.97-.88,0-1.61-.25-2.19-.76s-.87-1.15-.87-1.93c0-.95.35-1.68,1.06-2.19.71-.51,1.72-.77,3.06-.77h1.1v-.51c0-.42-.11-.75-.32-1s-.55-.37-1.01-.37c-.4,0-.72.1-.95.29s-.34.46-.34.8h-2.4c0-.52.16-1,.48-1.44s.77-.79,1.36-1.04c.59-.25,1.25-.38,1.98-.38,1.11,0,1.99.28,2.64.83.65.56.98,1.34.98,2.35v3.89c0,.85.12,1.5.36,1.93v.14h-2.42ZM103.32,94.97c.35,0,.68-.08.98-.24.3-.16.52-.37.66-.63v-1.54h-.9c-1.2,0-1.84.42-1.92,1.25v.14c0,.3.1.54.31.74.21.19.5.29.86.29Z"/>
        <path class="cls-1" d="M111.75,96.64h-2.41v-12.75h2.41v12.75Z"/>
        <path class="cls-1" d="M59.34,114.64h-2.49v-5.18h-4.86v5.18h-2.49v-12.09h2.49v4.9h4.86v-4.9h2.49v12.09Z"/>
        <path class="cls-1" d="M65.49,114.8c-1.32,0-2.39-.4-3.22-1.21s-1.24-1.88-1.24-3.23v-.23c0-.9.17-1.71.52-2.42.35-.71.84-1.26,1.48-1.64.64-.38,1.37-.58,2.19-.58,1.23,0,2.2.39,2.9,1.16.71.77,1.06,1.87,1.06,3.3v.98h-5.72c.08.59.31,1.06.7,1.41.39.35.88.53,1.48.53.92,0,1.65-.33,2.17-1l1.18,1.32c-.36.51-.85.91-1.46,1.19-.62.29-1.29.43-2.04.43ZM65.21,107.42c-.48,0-.86.16-1.16.48-.3.32-.49.78-.57,1.38h3.34v-.19c-.01-.53-.16-.95-.43-1.24-.28-.29-.67-.44-1.18-.44Z"/>
        <path class="cls-1" d="M75.75,114.64c-.11-.22-.19-.48-.24-.81-.58.65-1.34.97-2.27.97-.88,0-1.61-.25-2.19-.76s-.87-1.15-.87-1.93c0-.95.35-1.68,1.06-2.19.71-.51,1.72-.77,3.06-.77h1.1v-.51c0-.42-.11-.75-.32-1s-.55-.37-1.01-.37c-.4,0-.72.1-.95.29s-.34.46-.34.8h-2.4c0-.52.16-1,.48-1.44s.77-.79,1.36-1.04c.59-.25,1.25-.38,1.98-.38,1.11,0,1.99.28,2.64.83.65.56.98,1.34.98,2.35v3.89c0,.85.12,1.5.36,1.93v.14h-2.42ZM73.76,112.97c.35,0,.68-.08.98-.24.3-.16.52-.37.66-.63v-1.54h-.9c-1.2,0-1.84.42-1.92,1.25v.14c0,.3.1.54.31.74.21.19.5.29.86.29Z"/>
        <path class="cls-1" d="M82.19,114.64h-2.41v-12.75h2.41v12.75Z"/>
        <path class="cls-1" d="M87.03,103.45v2.21h1.54v1.76h-1.54v4.48c0,.33.06.57.19.71s.37.22.73.22c.27,0,.5-.02.71-.06v1.82c-.47.14-.95.22-1.45.22-1.68,0-2.54-.85-2.57-2.55v-4.84h-1.31v-1.76h1.31v-2.21h2.4Z"/>
        <path class="cls-1" d="M92.25,106.63c.64-.76,1.44-1.15,2.4-1.15,1.95,0,2.94,1.13,2.96,3.4v5.75h-2.4v-5.69c0-.51-.11-.9-.33-1.14-.22-.25-.59-.37-1.1-.37-.7,0-1.21.27-1.53.81v6.38h-2.4v-12.75h2.4v4.75Z"/>
      </g>
    </g>
  </g>
</svg>