<?xml version="1.0" encoding="UTF-8"?>
<svg id="Layer_2" xmlns="http://www.w3.org/2000/svg" viewBox="0 0 146.92 146.92">
  <defs>
    <style>
      .cls-1, .cls-2 {
        fill: #fff;
      }

      .cls-3 {
        fill: #653d79;
      }

      .cls-2 {
        stroke: #fff;
        stroke-miterlimit: 10;
      }
    </style>
  </defs>
  <g id="Layer_1-2" data-name="Layer_1">
    <g>
      <path class="cls-3" d="M146.92,52.83c0-5.39-3.12-12.92-6.93-16.73l-29.17-29.17C107,3.12,99.48,0,94.09,0h-41.25c-5.39,0-12.92,3.12-16.73,6.93L6.93,36.1C3.12,39.91,0,47.44,0,52.83v41.25c0,5.39,3.12,12.92,6.93,16.73l29.17,29.17c3.81,3.81,11.34,6.93,16.73,6.93h41.25c5.39,0,12.92-3.12,16.73-6.93l29.17-29.17c3.81-3.81,6.93-11.34,6.93-16.73v-41.25Z"/>
      <g>
        <path class="cls-2" d="M91.03,68.01h-35.48c-.07,0-.13-.03-.18-.07-.05-.05-.07-.11-.07-.18v-22.26s-4.77,0-4.77,0c-.11,0-.2-.07-.23-.17-.04-.1,0-.21.08-.28l22.93-18.41c.09-.07.22-.07.31,0l9.31,7.56,13.61,10.85c.08.07.11.18.08.28s-.13.17-.23.17h-5.15v.34l.04,21.92c0,.07-.03.13-.07.18-.05.05-.11.07-.18.07ZM55.79,67.51h34.99l-.04-22.26c0-.14.11-.25.25-.25h4.69l-7.54-6h0s-5.52-4.41-5.52-4.41l-9.16-7.44-22.22,17.85h4.32c.14,0,.25.11.25.25v22.26Z"/>
        <path class="cls-2" d="M73.1,62.49c-6.68,0-12.12-5.44-12.12-12.13s5.44-12.13,12.12-12.13,12.12,5.44,12.12,12.13-5.44,12.13-12.12,12.13ZM73.1,38.73c-6.41,0-11.63,5.22-11.63,11.63s5.22,11.63,11.63,11.63,11.63-5.22,11.63-11.63-5.22-11.63-11.63-11.63Z"/>
        <path class="cls-2" d="M75.88,58h-5.56c-.14,0-.25-.11-.25-.25v-4.41h-4.4c-.14,0-.25-.11-.25-.25v-5.55c0-.14.11-.25.25-.25h4.4v-4.41c0-.14.11-.25.25-.25h5.56c.14,0,.25.11.25.25v4.41h4.4c.14,0,.25.11.25.25v5.55c0,.14-.11.25-.25.25h-4.4v4.41c0,.14-.11.25-.25.25ZM70.57,57.5h5.06v-4.41c0-.14.11-.25.25-.25h4.4v-5.05h-4.4c-.14,0-.25-.11-.25-.25v-4.41h-5.06v4.41c0,.14-.11.25-.25.25h-4.4v5.05h4.4c.14,0,.25.11.25.25v4.41Z"/>
      </g>
      <g>
        <path class="cls-1" d="M54.5,92.61c-.09,1.3-.57,2.32-1.44,3.07s-2.01,1.12-3.42,1.12c-1.55,0-2.77-.52-3.66-1.56-.89-1.04-1.33-2.48-1.33-4.3v-.74c0-1.16.21-2.19.61-3.07s1-1.56,1.76-2.04c.76-.47,1.64-.71,2.65-.71,1.39,0,2.52.37,3.37,1.12.85.75,1.35,1.8,1.48,3.15h-2.49c-.06-.78-.28-1.35-.65-1.7-.37-.35-.94-.53-1.71-.53-.83,0-1.45.3-1.86.89-.41.59-.62,1.52-.63,2.77v.91c0,1.31.2,2.26.59,2.86s1.02.9,1.87.9c.77,0,1.34-.18,1.72-.53.38-.35.6-.9.65-1.63h2.49Z"/>
        <path class="cls-1" d="M58.32,88.63c.64-.76,1.44-1.15,2.4-1.15,1.95,0,2.94,1.13,2.96,3.4v5.75h-2.4v-5.69c0-.51-.11-.9-.33-1.14-.22-.25-.59-.37-1.1-.37-.7,0-1.21.27-1.53.81v6.38h-2.4v-12.75h2.4v4.75Z"/>
        <path class="cls-1" d="M70.54,89.9c-.33-.04-.62-.07-.86-.07-.91,0-1.5.31-1.79.92v5.88h-2.4v-8.98h2.27l.07,1.07c.48-.82,1.15-1.24,2-1.24.27,0,.52.04.75.11l-.03,2.31Z"/>
        <path class="cls-1" d="M71.02,92.06c0-.89.17-1.69.51-2.38s.84-1.24,1.48-1.62,1.39-.57,2.25-.57c1.21,0,2.2.37,2.97,1.11s1.19,1.75,1.28,3.02l.02.61c0,1.38-.38,2.48-1.15,3.32-.77.83-1.8,1.25-3.1,1.25s-2.33-.42-3.1-1.25c-.77-.83-1.16-1.96-1.16-3.39v-.11ZM73.42,92.23c0,.85.16,1.51.48,1.96.32.45.78.68,1.38.68s1.03-.22,1.36-.67c.33-.45.49-1.16.49-2.14,0-.84-.16-1.49-.49-1.95-.33-.46-.79-.69-1.38-.69s-1.04.23-1.36.69c-.32.46-.48,1.17-.48,2.12Z"/>
        <path class="cls-1" d="M83.22,87.66l.08,1.04c.64-.8,1.5-1.2,2.58-1.2.95,0,1.66.28,2.12.84s.7,1.39.71,2.51v5.8h-2.4v-5.74c0-.51-.11-.88-.33-1.11-.22-.23-.59-.34-1.1-.34-.67,0-1.18.29-1.52.86v6.33h-2.4v-8.98h2.26Z"/>
        <path class="cls-1" d="M90.51,85.33c0-.36.12-.66.36-.89.24-.23.57-.35.98-.35s.74.12.98.35c.24.23.37.53.37.89s-.12.66-.37.9-.57.35-.97.35-.73-.12-.98-.35-.37-.53-.37-.9ZM93.06,96.64h-2.41v-8.98h2.41v8.98Z"/>
        <path class="cls-1" d="M98.77,94.87c.44,0,.8-.12,1.08-.37.28-.24.42-.57.43-.97h2.25c0,.61-.17,1.17-.5,1.67-.33.51-.77.9-1.34,1.18-.57.28-1.19.42-1.88.42-1.28,0-2.3-.41-3.04-1.22-.74-.82-1.11-1.94-1.11-3.38v-.16c0-1.38.37-2.49,1.1-3.31.74-.82,1.75-1.24,3.03-1.24,1.12,0,2.02.32,2.7.96.68.64,1.02,1.49,1.03,2.55h-2.25c-.01-.47-.16-.85-.43-1.14-.28-.29-.64-.44-1.1-.44-.56,0-.98.2-1.27.61-.29.41-.43,1.07-.43,1.98v.25c0,.93.14,1.59.42,2,.28.4.71.61,1.29.61Z"/>
        <path class="cls-1" d="M59.33,114.64h-2.49v-5.18h-4.86v5.18h-2.49v-12.09h2.49v4.9h4.86v-4.9h2.49v12.09Z"/>
        <path class="cls-1" d="M65.49,114.8c-1.32,0-2.39-.4-3.22-1.21s-1.24-1.88-1.24-3.23v-.23c0-.9.17-1.71.52-2.42.35-.71.84-1.26,1.48-1.64.64-.38,1.37-.58,2.19-.58,1.23,0,2.2.39,2.9,1.16.71.77,1.06,1.87,1.06,3.3v.98h-5.72c.08.59.31,1.06.7,1.41.39.35.88.53,1.48.53.92,0,1.65-.33,2.17-1l1.18,1.32c-.36.51-.85.91-1.46,1.19-.62.29-1.29.43-2.04.43ZM65.21,107.42c-.48,0-.86.16-1.16.48-.3.32-.49.78-.57,1.38h3.34v-.19c-.01-.53-.16-.95-.43-1.24-.28-.29-.67-.44-1.18-.44Z"/>
        <path class="cls-1" d="M75.74,114.64c-.11-.22-.19-.48-.24-.81-.58.65-1.34.97-2.27.97-.88,0-1.61-.25-2.19-.76s-.87-1.15-.87-1.93c0-.95.35-1.68,1.06-2.19.71-.51,1.72-.77,3.06-.77h1.1v-.51c0-.42-.11-.75-.32-1s-.55-.37-1.01-.37c-.4,0-.72.1-.95.29s-.34.46-.34.8h-2.4c0-.52.16-1,.48-1.44s.77-.79,1.36-1.04c.59-.25,1.25-.38,1.98-.38,1.11,0,1.99.28,2.64.83.65.56.98,1.34.98,2.35v3.89c0,.85.12,1.5.36,1.93v.14h-2.42ZM73.76,112.97c.35,0,.68-.08.98-.24.3-.16.52-.37.66-.63v-1.54h-.9c-1.2,0-1.84.42-1.92,1.25v.14c0,.3.1.54.31.74.21.19.5.29.86.29Z"/>
        <path class="cls-1" d="M82.19,114.64h-2.41v-12.75h2.41v12.75Z"/>
        <path class="cls-1" d="M87.03,103.45v2.21h1.54v1.76h-1.54v4.48c0,.33.06.57.19.71s.37.22.73.22c.27,0,.5-.02.71-.06v1.82c-.47.14-.95.22-1.45.22-1.68,0-2.54-.85-2.57-2.55v-4.84h-1.31v-1.76h1.31v-2.21h2.4Z"/>
        <path class="cls-1" d="M92.25,106.63c.64-.76,1.44-1.15,2.4-1.15,1.95,0,2.94,1.13,2.96,3.4v5.75h-2.4v-5.69c0-.51-.11-.9-.33-1.14-.22-.25-.59-.37-1.1-.37-.7,0-1.21.27-1.53.81v6.38h-2.4v-12.75h2.4v4.75Z"/>
      </g>
    </g>
  </g>
</svg>