<?xml version="1.0" encoding="UTF-8"?>
<svg id="Layer_2" xmlns="http://www.w3.org/2000/svg" viewBox="0 0 146.92 146.92">
  <defs>
    <style>
      .cls-1, .cls-2 {
        fill: #fff;
      }

      .cls-3 {
        fill: #653d79;
      }

      .cls-2 {
        stroke: #fff;
        stroke-miterlimit: 10;
      }
    </style>
  </defs>
  <g id="Layer_1-2" data-name="Layer_1">
    <g>
      <path class="cls-3" d="M139.99,110.82c3.81-3.81,6.93-11.34,6.93-16.73v-41.25c0-5.39-3.12-12.92-6.93-16.73l-29.17-29.17C107,3.12,99.48,0,94.09,0h-41.25c-5.39,0-12.92,3.12-16.73,6.93L6.93,36.1C3.12,39.91,0,47.44,0,52.83v41.25c0,5.39,3.12,12.92,6.93,16.73l29.17,29.17c3.81,3.81,11.34,6.93,16.73,6.93h41.25c5.39,0,12.92-3.12,16.73-6.93l29.17-29.17Z"/>
      <path class="cls-2" d="M80.23,70.45h-13.54c-.15,0-.28-.12-.28-.28v-16.17h-15.82c-.15,0-.28-.12-.28-.28v-12.84c0-.15.12-.28.28-.28h15.82v-16.18c0-.15.12-.28.28-.28h13.54c.15,0,.28.12.28.28v16.18h15.81c.15,0,.28.12.28.28v12.84c0,.15-.12.28-.28.28h-15.81v16.17c0,.15-.12.28-.28.28ZM66.97,69.9h12.99v-16.17c0-.15.12-.28.28-.28h15.81v-12.28h-15.81c-.15,0-.28-.12-.28-.28v-16.18h-12.99v16.18c0,.15-.12.28-.28.28h-15.82v12.28h15.82c.15,0,.28.12.28.28v16.17Z"/>
      <g>
        <path class="cls-1" d="M57.91,84.55v7.96c0,1.32-.41,2.37-1.24,3.14s-1.96,1.15-3.39,1.15-2.53-.37-3.36-1.12-1.25-1.77-1.27-3.08v-8.05h2.49v7.98c0,.79.19,1.37.57,1.73.38.36.9.54,1.57.54,1.4,0,2.11-.74,2.13-2.21v-8.04h2.5Z"/>
        <path class="cls-1" d="M64.84,89.9c-.33-.04-.62-.07-.86-.07-.91,0-1.5.31-1.79.92v5.88h-2.4v-8.98h2.27l.07,1.07c.48-.82,1.15-1.24,2-1.24.27,0,.52.04.75.11l-.03,2.31Z"/>
        <path class="cls-1" d="M65.65,92.08c0-1.38.33-2.49.98-3.33.66-.84,1.54-1.26,2.65-1.26.98,0,1.75.34,2.3,1.01l.1-.85h2.17v8.68c0,.79-.18,1.47-.54,2.05-.36.58-.86,1.02-1.51,1.33s-1.41.46-2.27.46c-.66,0-1.3-.13-1.93-.39-.62-.26-1.1-.6-1.42-1.02l1.06-1.46c.6.67,1.32,1,2.17,1,.64,0,1.13-.17,1.49-.51.35-.34.53-.82.53-1.45v-.48c-.55.63-1.28.94-2.18.94-1.08,0-1.95-.42-2.62-1.27-.67-.84-1-1.96-1-3.36v-.1ZM68.05,92.26c0,.81.16,1.45.49,1.92.33.46.78.69,1.35.69.73,0,1.25-.27,1.57-.82v-3.78c-.32-.55-.84-.82-1.55-.82-.58,0-1.03.24-1.36.71-.33.47-.49,1.18-.49,2.11Z"/>
        <path class="cls-1" d="M79.83,96.8c-1.32,0-2.39-.4-3.22-1.21s-1.24-1.88-1.24-3.23v-.23c0-.9.17-1.71.52-2.42.35-.71.84-1.26,1.48-1.64.64-.38,1.37-.58,2.19-.58,1.23,0,2.2.39,2.9,1.16.71.77,1.06,1.87,1.06,3.3v.98h-5.72c.08.59.31,1.06.7,1.41.39.35.88.53,1.48.53.92,0,1.65-.33,2.17-1l1.18,1.32c-.36.51-.85.91-1.46,1.19-.62.29-1.29.43-2.04.43ZM79.56,89.42c-.48,0-.86.16-1.16.48-.3.32-.49.78-.57,1.38h3.34v-.19c-.01-.53-.16-.95-.43-1.24-.28-.29-.67-.44-1.18-.44Z"/>
        <path class="cls-1" d="M87.1,87.66l.08,1.04c.64-.8,1.5-1.2,2.58-1.2.95,0,1.66.28,2.12.84s.7,1.39.71,2.51v5.8h-2.4v-5.74c0-.51-.11-.88-.33-1.11-.22-.23-.59-.34-1.1-.34-.67,0-1.18.29-1.52.86v6.33h-2.4v-8.98h2.26Z"/>
        <path class="cls-1" d="M97.28,85.45v2.21h1.54v1.76h-1.54v4.48c0,.33.06.57.19.71s.37.22.73.22c.27,0,.5-.02.71-.06v1.82c-.47.14-.95.22-1.45.22-1.68,0-2.54-.85-2.57-2.55v-4.84h-1.31v-1.76h1.31v-2.21h2.4Z"/>
        <path class="cls-1" d="M59.34,114.64h-2.49v-5.18h-4.86v5.18h-2.49v-12.09h2.49v4.9h4.86v-4.9h2.49v12.09Z"/>
        <path class="cls-1" d="M65.49,114.8c-1.32,0-2.39-.4-3.22-1.21s-1.24-1.88-1.24-3.23v-.23c0-.9.17-1.71.52-2.42.35-.71.84-1.26,1.48-1.64.64-.38,1.37-.58,2.19-.58,1.23,0,2.2.39,2.9,1.16.71.77,1.06,1.87,1.06,3.3v.98h-5.72c.08.59.31,1.06.7,1.41.39.35.88.53,1.48.53.92,0,1.65-.33,2.17-1l1.18,1.32c-.36.51-.85.91-1.46,1.19-.62.29-1.29.43-2.04.43ZM65.21,107.42c-.48,0-.86.16-1.16.48-.3.32-.49.78-.57,1.38h3.34v-.19c-.01-.53-.16-.95-.43-1.24-.28-.29-.67-.44-1.18-.44Z"/>
        <path class="cls-1" d="M75.75,114.64c-.11-.22-.19-.48-.24-.81-.58.65-1.34.97-2.27.97-.88,0-1.61-.25-2.19-.76s-.87-1.15-.87-1.93c0-.95.35-1.68,1.06-2.19.71-.51,1.72-.77,3.06-.77h1.1v-.51c0-.42-.11-.75-.32-1s-.55-.37-1.01-.37c-.4,0-.72.1-.95.29s-.34.46-.34.8h-2.4c0-.52.16-1,.48-1.44s.77-.79,1.36-1.04c.59-.25,1.25-.38,1.98-.38,1.11,0,1.99.28,2.64.83.65.56.98,1.34.98,2.35v3.89c0,.85.12,1.5.36,1.93v.14h-2.42ZM73.76,112.97c.35,0,.68-.08.98-.24.3-.16.52-.37.66-.63v-1.54h-.9c-1.2,0-1.84.42-1.92,1.25v.14c0,.3.1.54.31.74.21.19.5.29.86.29Z"/>
        <path class="cls-1" d="M82.19,114.64h-2.41v-12.75h2.41v12.75Z"/>
        <path class="cls-1" d="M87.03,103.45v2.21h1.54v1.76h-1.54v4.48c0,.33.06.57.19.71s.37.22.73.22c.27,0,.5-.02.71-.06v1.82c-.47.14-.95.22-1.45.22-1.68,0-2.54-.85-2.57-2.55v-4.84h-1.31v-1.76h1.31v-2.21h2.4Z"/>
        <path class="cls-1" d="M92.25,106.63c.64-.76,1.44-1.15,2.4-1.15,1.95,0,2.94,1.13,2.96,3.4v5.75h-2.4v-5.69c0-.51-.11-.9-.33-1.14-.22-.25-.59-.37-1.1-.37-.7,0-1.21.27-1.53.81v6.38h-2.4v-12.75h2.4v4.75Z"/>
      </g>
    </g>
  </g>
</svg>