<?xml version="1.0" encoding="UTF-8"?>
<svg id="Layer_2" xmlns="http://www.w3.org/2000/svg" viewBox="0 0 146.92 146.92">
  <defs>
    <style>
      .cls-1, .cls-2 {
        fill: #fff;
      }

      .cls-3 {
        fill: #653d79;
      }

      .cls-2 {
        stroke: #fff;
        stroke-miterlimit: 10;
      }
    </style>
  </defs>
  <g id="Layer_1-2" data-name="Layer_1">
    <g>
      <path class="cls-3" d="M52.83,0c-5.39,0-12.92,3.12-16.73,6.93L6.93,36.1C3.12,39.91,0,47.44,0,52.83v41.25c0,5.39,3.12,12.92,6.93,16.73l29.17,29.17c3.81,3.81,11.34,6.93,16.73,6.93h41.25c5.39,0,12.92-3.12,16.73-6.93l29.17-29.17c3.81-3.81,6.93-11.34,6.93-16.73v-41.25c0-5.39-3.12-12.92-6.93-16.73l-29.17-29.17C107,3.12,99.48,0,94.09,0h-41.25Z"/>
      <g>
        <path class="cls-2" d="M82.17,47.33c-1.85,0-3.85-.54-5.76-2.11-1.19-.63-3.17-1.65-3.61-1.74-.36-.07-3.66-.94-6.32-1.65l-1.55-.41c-1.35-.36-2.21-1.67-1.99-3.05.12-.75.53-1.4,1.16-1.83.63-.43,1.39-.57,2.13-.4l10.54,2.46,1.78-.39c.14-.03.27.06.3.19.03.14-.06.27-.19.3l-1.83.41s-.07,0-.11,0l-10.59-2.47c-.6-.14-1.22-.03-1.73.32-.51.35-.85.88-.95,1.49-.18,1.12.52,2.19,1.62,2.48l1.55.41c2.51.66,5.94,1.58,6.28,1.64.66.13,3.48,1.64,3.8,1.81,2.46,2.02,5.31,2.54,8.5,1.56,2.4-.73,4.11-2.08,4.13-2.09l6.49-3.68-4.73-9.13-6.85,3.07c-.32.14-.68.17-1.01.08l-13.7-3.67c-.43-.11-.87-.05-1.26.18l-14.53,8.68c-.59.36-1.01.93-1.18,1.6-.16.67-.05,1.35.3,1.93.71,1.18,2.26,1.57,3.47.88l6.52-3.78c.12-.07.27-.03.34.09s.03.27-.09.34l-6.53,3.78c-1.44.83-3.3.35-4.15-1.06-.43-.69-.56-1.52-.36-2.32.2-.81.7-1.49,1.41-1.91l14.54-8.68c.5-.3,1.08-.38,1.64-.23l13.7,3.67c.22.06.46.04.67-.05l7.06-3.16c.12-.06.27,0,.33.11l4.95,9.56c.06.12.02.27-.1.33l-6.67,3.78s-3.37,2.63-7.43,2.63Z"/>
        <path class="cls-2" d="M77.78,64.22c-.18,0-.36-.02-.54-.07l-13.7-3.67c-.22-.06-.46-.04-.67.05l-7.06,3.16c-.12.06-.27,0-.33-.11l-4.95-9.56c-.06-.12-.02-.27.1-.33l6.67-3.78s7.09-5.54,13.19-.53c1.19.63,3.17,1.65,3.61,1.74.36.07,3.67.95,6.33,1.65l1.53.41c1.35.36,2.2,1.67,1.99,3.05-.12.75-.53,1.4-1.16,1.83-.63.43-1.39.56-2.13.39l-10.54-2.46-1.78.39c-.14.03-.27-.06-.3-.19-.03-.14.06-.27.19-.3l1.83-.41s.07,0,.11,0l10.59,2.47c.6.14,1.22.03,1.73-.32s.85-.88.95-1.49c.18-1.12-.52-2.19-1.62-2.48l-1.53-.41c-2.51-.67-5.96-1.58-6.3-1.65-.66-.13-3.48-1.64-3.8-1.82-2.46-2.02-5.31-2.54-8.5-1.56-2.4.73-4.11,2.08-4.13,2.09l-6.49,3.68,4.73,9.13,6.85-3.07c.32-.14.68-.17,1.01-.08l13.7,3.67c.43.11.88.05,1.26-.18l14.53-8.68c.59-.36,1.01-.93,1.18-1.6.16-.67.05-1.35-.3-1.93-.71-1.18-2.27-1.57-3.47-.88l-6.52,3.78c-.12.07-.27.03-.34-.09s-.03-.27.09-.34l6.53-3.78c1.43-.83,3.3-.35,4.15,1.06.43.69.56,1.52.36,2.32-.2.81-.7,1.49-1.41,1.91l-14.53,8.68c-.33.2-.72.3-1.1.3Z"/>
      </g>
      <g>
        <path class="cls-1" d="M45.18,94.15h-4.37l-.83,2.49h-2.65l4.5-12.09h2.31l4.52,12.09h-2.65l-.84-2.49ZM41.49,92.13h3.02l-1.52-4.52-1.5,4.52Z"/>
        <path class="cls-1" d="M49.29,92.08c0-1.38.33-2.49.98-3.33.66-.84,1.54-1.26,2.65-1.26.98,0,1.75.34,2.3,1.01l.1-.85h2.17v8.68c0,.79-.18,1.47-.54,2.05-.36.58-.86,1.02-1.51,1.33s-1.41.46-2.27.46c-.66,0-1.3-.13-1.93-.39-.62-.26-1.1-.6-1.42-1.02l1.06-1.46c.6.67,1.32,1,2.17,1,.64,0,1.13-.17,1.49-.51.35-.34.53-.82.53-1.45v-.48c-.55.63-1.28.94-2.18.94-1.08,0-1.95-.42-2.62-1.27-.67-.84-1-1.96-1-3.36v-.1ZM51.69,92.26c0,.81.16,1.45.49,1.92.33.46.78.69,1.35.69.73,0,1.25-.27,1.57-.82v-3.78c-.32-.55-.84-.82-1.55-.82-.58,0-1.03.24-1.36.71-.33.47-.49,1.18-.49,2.11Z"/>
        <path class="cls-1" d="M63.48,96.8c-1.32,0-2.39-.4-3.22-1.21s-1.24-1.88-1.24-3.23v-.23c0-.9.17-1.71.52-2.42.35-.71.84-1.26,1.48-1.64.64-.38,1.37-.58,2.19-.58,1.23,0,2.2.39,2.9,1.16.71.77,1.06,1.87,1.06,3.3v.98h-5.72c.08.59.31,1.06.7,1.41.39.35.88.53,1.48.53.92,0,1.65-.33,2.17-1l1.18,1.32c-.36.51-.85.91-1.46,1.19-.62.29-1.29.43-2.04.43ZM63.2,89.42c-.48,0-.86.16-1.16.48-.3.32-.49.78-.57,1.38h3.34v-.19c-.01-.53-.16-.95-.43-1.24-.28-.29-.67-.44-1.18-.44Z"/>
        <path class="cls-1" d="M68.16,92.08c0-1.4.31-2.52.94-3.35s1.49-1.25,2.58-1.25c.87,0,1.6.33,2.17.98v-4.58h2.41v12.75h-2.17l-.12-.95c-.6.75-1.37,1.12-2.31,1.12-1.06,0-1.91-.42-2.54-1.25-.64-.83-.96-1.99-.96-3.47ZM70.56,92.26c0,.84.15,1.49.44,1.94s.72.67,1.28.67c.74,0,1.26-.31,1.57-.94v-3.55c-.3-.63-.82-.94-1.55-.94-1.16,0-1.73.94-1.73,2.82Z"/>
        <path class="cls-1" d="M87.55,96.64c-.11-.22-.19-.48-.24-.81-.58.65-1.34.97-2.27.97-.88,0-1.61-.25-2.19-.76s-.87-1.15-.87-1.93c0-.95.35-1.68,1.06-2.19.71-.51,1.72-.77,3.06-.77h1.1v-.51c0-.42-.11-.75-.32-1s-.55-.37-1.01-.37c-.4,0-.72.1-.95.29s-.34.46-.34.8h-2.4c0-.52.16-1,.48-1.44s.77-.79,1.36-1.04c.59-.25,1.25-.38,1.98-.38,1.11,0,1.99.28,2.64.83.65.56.98,1.34.98,2.35v3.89c0,.85.12,1.5.36,1.93v.14h-2.42ZM85.57,94.97c.35,0,.68-.08.98-.24.3-.16.52-.37.66-.63v-1.54h-.9c-1.2,0-1.84.42-1.92,1.25v.14c0,.3.1.54.31.74.21.19.5.29.86.29Z"/>
        <path class="cls-1" d="M93.67,87.66l.08,1.04c.64-.8,1.5-1.2,2.58-1.2.95,0,1.66.28,2.12.84s.7,1.39.71,2.51v5.8h-2.4v-5.74c0-.51-.11-.88-.33-1.11-.22-.23-.59-.34-1.1-.34-.67,0-1.18.29-1.52.86v6.33h-2.4v-8.98h2.26Z"/>
        <path class="cls-1" d="M100.61,92.08c0-1.4.31-2.52.94-3.35s1.49-1.25,2.58-1.25c.87,0,1.6.33,2.17.98v-4.58h2.41v12.75h-2.17l-.12-.95c-.6.75-1.37,1.12-2.31,1.12-1.06,0-1.91-.42-2.54-1.25-.64-.83-.96-1.99-.96-3.47ZM103,92.26c0,.84.15,1.49.44,1.94s.72.67,1.28.67c.74,0,1.26-.31,1.57-.94v-3.55c-.3-.63-.82-.94-1.55-.94-1.16,0-1.73.94-1.73,2.82Z"/>
        <path class="cls-1" d="M41.7,110.38v4.26h-2.49v-12.09h4.71c.91,0,1.71.17,2.39.5.69.33,1.22.8,1.59,1.42.37.61.56,1.31.56,2.09,0,1.18-.41,2.12-1.22,2.8-.81.68-1.93,1.02-3.37,1.02h-2.18ZM41.7,108.36h2.22c.66,0,1.16-.15,1.51-.46s.52-.75.52-1.33-.17-1.07-.52-1.44c-.35-.37-.83-.55-1.45-.56h-2.28v3.79Z"/>
        <path class="cls-1" d="M55.13,114.64c-.11-.22-.19-.48-.24-.81-.58.65-1.34.97-2.27.97-.88,0-1.61-.25-2.19-.76s-.87-1.15-.87-1.93c0-.95.35-1.68,1.06-2.19.71-.51,1.72-.77,3.06-.77h1.1v-.51c0-.42-.11-.75-.32-1s-.55-.37-1.01-.37c-.4,0-.72.1-.95.29s-.34.46-.34.8h-2.4c0-.52.16-1,.48-1.44s.77-.79,1.36-1.04c.59-.25,1.25-.38,1.98-.38,1.11,0,1.99.28,2.64.83.65.56.98,1.34.98,2.35v3.89c0,.85.12,1.5.36,1.93v.14h-2.42ZM53.15,112.97c.35,0,.68-.08.98-.24.3-.16.52-.37.66-.63v-1.54h-.9c-1.2,0-1.84.42-1.92,1.25v.14c0,.3.1.54.31.74.21.19.5.29.86.29Z"/>
        <path class="cls-1" d="M61.57,114.64h-2.41v-12.75h2.41v12.75Z"/>
        <path class="cls-1" d="M66.08,114.64h-2.41v-12.75h2.41v12.75Z"/>
        <path class="cls-1" d="M68.04,103.33c0-.36.12-.66.36-.89.24-.23.57-.35.98-.35s.74.12.98.35c.24.23.37.53.37.89s-.12.66-.37.9-.57.35-.97.35-.73-.12-.98-.35-.37-.53-.37-.9ZM70.59,114.64h-2.41v-8.98h2.41v8.98Z"/>
        <path class="cls-1" d="M77.77,114.64c-.11-.22-.19-.48-.24-.81-.58.65-1.34.97-2.27.97-.88,0-1.61-.25-2.19-.76s-.87-1.15-.87-1.93c0-.95.35-1.68,1.06-2.19.71-.51,1.72-.77,3.06-.77h1.1v-.51c0-.42-.11-.75-.32-1s-.55-.37-1.01-.37c-.4,0-.72.1-.95.29s-.34.46-.34.8h-2.4c0-.52.16-1,.48-1.44s.77-.79,1.36-1.04c.59-.25,1.25-.38,1.98-.38,1.11,0,1.99.28,2.64.83.65.56.98,1.34.98,2.35v3.89c0,.85.12,1.5.36,1.93v.14h-2.42ZM75.78,112.97c.35,0,.68-.08.98-.24.3-.16.52-.37.66-.63v-1.54h-.9c-1.2,0-1.84.42-1.92,1.25v.14c0,.3.1.54.31.74.21.19.5.29.86.29Z"/>
        <path class="cls-1" d="M84.55,103.45v2.21h1.54v1.76h-1.54v4.48c0,.33.06.57.19.71s.37.22.73.22c.27,0,.5-.02.71-.06v1.82c-.47.14-.95.22-1.45.22-1.68,0-2.54-.85-2.57-2.55v-4.84h-1.31v-1.76h1.31v-2.21h2.4Z"/>
        <path class="cls-1" d="M87.4,103.33c0-.36.12-.66.36-.89.24-.23.57-.35.98-.35s.74.12.98.35c.24.23.37.53.37.89s-.12.66-.37.9-.57.35-.97.35-.73-.12-.98-.35-.37-.53-.37-.9ZM89.95,114.64h-2.41v-8.98h2.41v8.98Z"/>
        <path class="cls-1" d="M95.29,111.71l1.67-6.05h2.51l-3.03,8.98h-2.29l-3.03-8.98h2.51l1.67,6.05Z"/>
        <path class="cls-1" d="M104.65,114.8c-1.32,0-2.39-.4-3.22-1.21s-1.24-1.88-1.24-3.23v-.23c0-.9.17-1.71.52-2.42.35-.71.84-1.26,1.48-1.64.64-.38,1.37-.58,2.19-.58,1.23,0,2.2.39,2.9,1.16.71.77,1.06,1.87,1.06,3.3v.98h-5.72c.08.59.31,1.06.7,1.41.39.35.88.53,1.48.53.92,0,1.65-.33,2.17-1l1.18,1.32c-.36.51-.85.91-1.46,1.19-.62.29-1.29.43-2.04.43ZM104.38,107.42c-.48,0-.86.16-1.16.48-.3.32-.49.78-.57,1.38h3.34v-.19c-.01-.53-.16-.95-.43-1.24-.28-.29-.67-.44-1.18-.44Z"/>
        <path class="cls-1" d="M66.21,128.61c-.09,1.3-.57,2.32-1.44,3.07s-2.01,1.12-3.42,1.12c-1.55,0-2.77-.52-3.66-1.56-.89-1.04-1.33-2.48-1.33-4.3v-.74c0-1.16.21-2.19.61-3.07s1-1.56,1.76-2.04c.76-.47,1.64-.71,2.65-.71,1.39,0,2.52.37,3.37,1.12.85.75,1.35,1.8,1.48,3.15h-2.49c-.06-.78-.28-1.35-.65-1.7-.37-.35-.94-.53-1.71-.53-.83,0-1.45.3-1.86.89-.41.59-.62,1.52-.63,2.77v.91c0,1.31.2,2.26.59,2.86s1.02.9,1.87.9c.77,0,1.34-.18,1.72-.53.38-.35.6-.9.65-1.63h2.49Z"/>
        <path class="cls-1" d="M72.89,132.64c-.11-.22-.19-.48-.24-.81-.58.65-1.34.97-2.27.97-.88,0-1.61-.25-2.19-.76s-.87-1.15-.87-1.93c0-.95.35-1.68,1.06-2.19.71-.51,1.72-.77,3.06-.77h1.1v-.51c0-.42-.11-.75-.32-1s-.55-.37-1.01-.37c-.4,0-.72.1-.95.29s-.34.46-.34.8h-2.4c0-.52.16-1,.48-1.44s.77-.79,1.36-1.04c.59-.25,1.25-.38,1.98-.38,1.11,0,1.99.28,2.64.83.65.56.98,1.34.98,2.35v3.89c0,.85.12,1.5.36,1.93v.14h-2.42ZM70.91,130.97c.35,0,.68-.08.98-.24.3-.16.52-.37.66-.63v-1.54h-.9c-1.2,0-1.84.42-1.92,1.25v.14c0,.3.1.54.31.74.21.19.5.29.86.29Z"/>
        <path class="cls-1" d="M81.85,125.9c-.33-.04-.62-.07-.86-.07-.91,0-1.5.31-1.79.92v5.88h-2.4v-8.98h2.27l.07,1.07c.48-.82,1.15-1.24,2-1.24.27,0,.52.04.75.11l-.03,2.31Z"/>
        <path class="cls-1" d="M87.14,132.8c-1.32,0-2.39-.4-3.22-1.21s-1.24-1.88-1.24-3.23v-.23c0-.9.17-1.71.52-2.42.35-.71.84-1.26,1.48-1.64.64-.38,1.37-.58,2.19-.58,1.23,0,2.2.39,2.9,1.16.71.77,1.06,1.87,1.06,3.3v.98h-5.72c.08.59.31,1.06.7,1.41.39.35.88.53,1.48.53.92,0,1.65-.33,2.17-1l1.18,1.32c-.36.51-.85.91-1.46,1.19-.62.29-1.29.43-2.04.43ZM86.86,125.42c-.48,0-.86.16-1.16.48-.3.32-.49.78-.57,1.38h3.34v-.19c-.01-.53-.16-.95-.43-1.24-.28-.29-.67-.44-1.18-.44Z"/>
      </g>
    </g>
  </g>
</svg>